<?xml version="1.0" encoding="UTF-8"?>
<svg id="_Слой_1" data-name="Слой 1" xmlns="http://www.w3.org/2000/svg" viewBox="0 0 2864.93 2463.29">
  <defs>
    <style>
      .cls-1 {
        fill: #828da0;
      }

      .cls-2 {
        fill: #212730;
      }
    </style>
  </defs>
  <path class="cls-1" d="M.43,1022.76C.1,731.19-1,439.19,2.47,147.8,15.44,69.02,78.73,12.11,159.45,4.78,211.31.07,335.6.39,382.42,17.77c79.17,29.4,92.67,110.19,119.95,180.05,61.81,158.24,117.84,316.49,182.66,473.34,1.04,2.53,9.62,20.94,11.38,19.59,6.74-17.14,12.35-34.78,19.07-51.95,17.57-44.87,35.89-89.88,54.84-135.16-.05-7.84.73-15.92-.05-23.73-8.66-86.99-4-174.53,15.14-259.18,20.76-91.8,57.26-208.4,168.05-217.95,45.4-3.92,126.26-3.52,171.95,0,141.18,10.88,161.7,205.14,163.11,314.89.5,39.2-5.83,79.76-6.06,119.08l56.29-92.69,5.74-2.36,119.98,305.04c5.88-4.71,8.73-16.08,11.32-23.66,38.51-112.8,72.92-220.93,100.46-337.54,24.45-103.52,33.06-272.13,171.22-282.78,49-3.78,124.61-3.05,174.06-.11,83.66,4.98,156.67,49.42,162.9,139.1,9.28,133.49-6.89,277.38,0,411.96-10.7,42.18-30.14,81.48-45.87,121.88,1.24,5.09,15.65,2.64,20.65,3.39,29.83,4.43,59.38,11.83,88.4,17.6,6.08,1.21,16.08.68,21.46,2.22,1.9.54,1.19,8.44,7.38.95,1.91-2.31,4.66-8.78,6.05-11.94,12.46-28.25,21.92-61.79,32.96-91.04,56.66-150.07,111.84-299.62,168.35-449.65,21.13-56.1,32.99-103.4,95.54-128.46,48.7-19.52,167.45-17.83,222.19-13.99,91.06,6.38,157.21,71.65,163.01,162.99,1.13,290.93-.95,582.78-2.1,873.1l-30,10c.35-298.3-.23-596.65-.03-894.97-9.89-63.76-59.08-110.95-122.89-119.11-104.29,10.51-229.16-39.19-281.24,80.51-25.84,59.4-46,124.17-68.84,185.55-69.91,187.91-141.18,375.61-210.99,564.01-8.81-2.75-45.17,9.67-49.08,4.07-2.34-3.34.01-13.94-4.9-16.06-.8,6.37,3.18,16.47-5.04,17.98-32.17,5.89-71.18,1.49-104.01,7.99-29.41-.4-58.82,2.04-87.98,5.62l-55-3.6c3.03-8.32,4.84-21.88,8.13-30.87,20.4-55.71,43.49-110.85,61.88-167.14l85.72,7.74c6.48-21.22,17.58-40.83,25.69-61.32,12.32-31.15,28.76-72.4,30.67-105.33s-1.97-63.04-2.17-94c-.6-93.36,6.58-198.55.17-290.17-5.13-73.23-68.64-105.02-135-109-45.15-2.71-111.18-3-156.17,0-73.64,4.92-106.16,53.87-124.71,119.29-28.33,99.96-42.69,205.52-72.79,307.21-27.95,94.45-63.61,186.79-96.45,279.56l-127.12-327.86-5.62.12-47.25,89.74c-11.27,8.88-25.09,14.22-33.9,26.1-23.49,58.58-44.25,118.32-65.07,177.91,3.64.11,7.72-6.58,9.88-9.53,33.26-45.19,62.46-70.74,104.13-107.43,7.14-6.29,21.2-24.84,30.63-24.52,6.5.22,38.33,16.51,42.25,21.57,2.92,3.77,6.91,17.25,9.24,22.37,24.77,54.46,43.44,114.63,65.04,171.52,1.33,9.55-6.43,28.61-9.81,38.5-1.11,3.24-.35,6.54-5.38,5.52-2.59-9.55-21.88-13.38-23.83-16.27-.66-.98,1.47-6.96,2.19-7.42,2.97-1.91,9.87,2.86,7.68-5.32-.33-1.23-16.13-14.84-18.02-18.02-1.19-6.08,6.87.21,6.02-6-.38-2.74-7.33-10.49-9.17-10.91-2.34-.53-8.28,7.39-8.87,8.95-.52,1.37,5.82.5,4.08,3.98-.11,4.41-5.9,6.24-7.16,9.07-1.15,2.57,1.32,5.68,1.11,5.89-.23.23-4.15.08-5.99.99-6.31,3.11-9.59,6.96-18.03,5.03,4.97-13.86-8.31-16.19-18.02-21.04,9.43-12.68-1.07-9.98-4-17.98,8.18,1.65-3.21-18.16-4.19-18.79-6.13-3.97-5.54,3.28-6.98,5.54-2.29,3.6-5.24,6.56-7.63,10.47-1.31,2.15-.85,6.05-2.19,7.86-2.93,3.95-10.85-1.77-5.01,9.93l-27.99-1.99c4.98-12.41,6.01-28.97-11.99-24.01-.01-4.53,11.25-5.29,9.97-8.95-1.88-5.35-10.9-4.26-13.02-6.99-2.64-3.39-3.11-22.88-7.98-24.03-10.4,5.72-14.83,16.09-20,25.98-4.51,1.07-6.22-6.93-7.33-7.58-9.57-5.6-6.05,15.15-7.86,17.36-1.48,1.82-12.47-.88-9.79,8.22-8.3-.09-8.45-9.95-10.01-16-10.36,2.95-14.28,7.22-25.99,3.99,4.35-13.11-3.84-21.98-8.02-33.98-4.57-3.25-9.19,14.51-9.59,17.53-.56,4.26,2.15,13.92,1.61,14.45-.92.92-21.34-4.25-25.99-1.99,22.33-59.73,45.41-119.32,68.04-178.96,5.28-13.91,9.42-34.14,15.53-46.47,4.66-9.4,27.98-20.22,30.14-28.01,1.99-7.19-4.24-10.22-6.15-15.1-4.35-11.1,3.64-46.32,4.52-60.37,6.21-99.06,8.89-327.99-110.48-363.68-33.34-9.97-136.49-7.97-174.68-5.48-76.96,5.01-104.76,48.19-129.04,112.97-43.25,115.38-50.44,238.03-38,360-26.96,69.15-54.82,138.03-81.88,207.11l-44,16c-.11-.3-3.37-1.82-4.41-4.5-65.16-166.53-127.54-335.85-191.77-501.93-29.26-75.66-47.69-176.39-146.84-185.55-38.12-3.52-159.03-4.85-193.42,2.51-59.45,12.74-101.9,66.71-109.56,126.44.28,283-.32,566.04.02,849.02l-30,8Z"/>
  <path class="cls-2" d="M672.43,1004.76c-.41.72-.02,8.03-1.36,11.63-40.56,108.92-83.91,216.92-123.99,326.01-24.93,67.84-38.87,157.6-100.03,199.9-1.76,1.22-3.69-.37-2.62,4.46h1978c1.08-4.83-.86-3.24-2.62-4.46-9.56-6.61-16.27-10.63-24.41-19.51-35.91-39.21-61.46-150.6-80.91-205.09-25.23-70.67-53.39-140.78-80.06-210.94l30-4c26.52,69.93,55.91,139.16,81.36,209.64,17.56,48.63,32.6,113.47,53.64,158.36,21.52,45.91,66.34,67.46,114.17,75.83,112.4-8.25,275.05,40.82,316.34-103.34,4.66-130.44,2.35-261.76,2.5-392.5l30-10c-.22,56.22.32,113.08-.08,168.92-.51,71.08,5.94,154.97.15,224.15-6.22,74.36-73.76,133.78-145.18,144.82l-2563.97.19c-82.25-10.22-147.73-72.62-153-157,.04-133.03.24-266.08.08-399.08l30-8c.16,132.33-.06,264.72-.07,397.07,5.61,74.37,52.78,122.65,125.54,134.46,80.97-7.49,211.3,23.28,277.58-31.49,40.38-33.37,44.32-73.13,60.92-119.08,48.56-134.41,99.46-268.2,152.04-400.96,8.69.11,18.65,5.29,26,10Z"/>
  <path class="cls-2" d="M544.24,2148.96l80.21,273.8,98.38-267.58c20.79-7.63,21.91-.26,28.51,15.67,32.04,77.4,60.14,165.75,88.57,245.43.94,2.64-.35,8.44,1.52,8.5l83.31-272.71c3.82-6.49,18.71-2.1,25.7-3.32l-93.93,313.08c-2.68,1.76-24.72,1.72-26.29-.31l-96.77-260.79-95.34,258.7c-2.89,5.47-23.53,4.27-26.89,1.53l-90.57-297.43-2.22-14.77,25.81.19Z"/>
  <path class="cls-2" d="M562.43,1768.76l25.71.31,121.26,215.68c7.3-2.09,4.67-7.79,7.18-12.43,3.89-7.21,8.82-15.61,13.08-23.32,32.97-59.55,66.98-118.58,99.74-178.26,5.01-4.45,19.94-.86,27.03-1.99l-1.29,283.73-22.71.27-.02-233.98-113.02,197.96c-3.21,3.89-17.38,3.34-19.91-2.03-33.77-58.48-65.67-118.09-99.43-176.57-3.73-6.46-7.93-14.57-13.63-19.37v234h-24v-284Z"/>
  <path class="cls-2" d="M1184.43,1768.76c7.06,1.18,21.92-2.56,27.02,1.98l97.17,174.41c6.77,4.5,18.24,39.7,24.79,39.63l117.22-212.82c6.27-6.43,19.15-1.94,27.8-3.2v283c0,3.8-23.71,1.16-25.13-.87-.66-.94-.76-2.1-.96-3.2l.06-226.93-113.15,200.03c-5.9-2.95-14.01-.08-17.77-6.11-31.91-53.93-60.05-110.27-91.44-164.56-5.42-9.37-11.06-19.92-17.17-28.76-1.22-1.77.35-3.68-4.46-2.61v233c0,4.87-24,2.24-24,1v-284Z"/>
  <path class="cls-2" d="M2151.43,2338.76c-2.6.81-2.83,4.55-3.1,6.9-4.19,35.72,6.2,77.3,1.82,113.82-2.06,6.29-21.85,2.12-27.73,3.29l-1.15-310.11c1.48-1.99,3.92-1.74,6.07-2,32.46-3.83,133.26-3.04,163.87,4.32,89.68,21.55,96.85,155.97-7.76,179.82-2.39.54-3.65-1.48-2.96,2.89l77.95,125.06h-30c-.29,0,.21-3.57-1.16-5.75-24.88-39.6-52.83-77.49-74.84-118.25h-101ZM2148.43,2312.76h127c3.12,0,21.75-8.15,25.61-10.39,47.14-27.23,40.84-102.72-10.27-120.96-2.8-1-24.04-6.65-25.35-6.65h-114c-.21,0-3,2.79-3,3v135Z"/>
  <path class="cls-2" d="M2062.43,2148.76v28h-187c-1,0-3.29,3.3-3.06,4.98l2.06,109.02h157c7.38,0,6.83,20.25,7,26h-164v120h187c4.89,0,2.5,21.49,3,26h-220v-309c0-.35,4.65-5,5-5h213Z"/>
  <path class="cls-2" d="M1026.43,2176.76l2,114h161c4.48,0,4.48,26,0,26h-163v117c0,.21,2.79,3,3,3h185v26h-214v-303c0-1.07-3.46-3.32-1.15-7.01,1.67-2.67,7.03-3.67,10.11-4.03,37.65-4.33,85.24,2.23,124.12,2.12,4.72-.01,9.11-2.11,13.84-2.16,9.15-.1,64.01-1.21,66.21,1.96,2.04,2.93,1.86,26.13-2.13,26.13h-185Z"/>
  <path class="cls-2" d="M1771.7,1795.52c89.29,72.35,65.29,222.5-45.71,255.81-118.19,35.47-225.09-72.96-184.13-190.13,33.23-95.08,151.1-129.48,229.84-65.67ZM1583.58,1985.6c81.77,103.72,242.83,28.23,214.29-105.29-18.75-87.72-136.14-123.25-200.75-60.85-44.75,43.23-52.35,116.92-13.55,166.14Z"/>
  <path class="cls-2" d="M1548.44,2462.75c-5.35-1.1-22.45,1.72-25.69-.32-4.69-2.96-29.22-66.44-34.18-76.31-6.22-6.47-14.02-1.37-21.06-1.27-53.21.74-106.49-1.06-159.7.29l-4.27,3.73-32.09,71.91c-5.1,4.46-19.88.87-27.02,1.97l140.04-312.96c15.73-2.42,20.5-4.28,28.32,9.62,50.25,89.27,83.18,198.46,132.64,289.36l3.02,13.98ZM1476.43,2360.76l-81.98-180-78.02,180h160Z"/>
  <path class="cls-2" d="M2021.43,1768.76c30.76,3.84,65.28,32.89,72.51,63.49,12.23,51.72-20.28,93.43-69.56,105.57,22.07,36.85,44.94,73.38,68.97,109.02l1.09,7.91c-8.7-.89-22.41,2.93-28.9-4.09l-70.1-111.9h-89v114h-24v-284h139ZM1906.43,1793.76v121h113c1.74,0,17.61-6.24,20.34-7.66,41.82-21.61,41.79-83.61,1.13-105.82-31.34-17.12-91.2-4.94-127.58-10.63-2.3-.2-6.22.9-6.9,3.1Z"/>
  <path class="cls-2" d="M1128.43,1768.76c-.39,4.27,1.75,24-3,24h-171v104h149c4.92,0,4.36,24-2,24h-147v108h171c3.68,0,6.39,26.29-1.99,26l-193.01-2v-284h198Z"/>
  <path class="cls-2" d="M1658.46,2426.76c3.4,3.61,3.44-1.6,4.18-2.85,5.3-8.98,10.89-22.76,15.27-32.67,34.67-78.42,63.96-159.5,97.64-238.36,5.44-7.73,20.35-2.81,28.89-4.1l-132.88,314.14-25.02-.26-130.11-313.88c8.55,1.29,23.45-3.63,28.89,4.1,36.62,85.72,70.91,172.45,108.06,257.94,1.14,2.63,4.5,15.34,5.08,15.95Z"/>
  <path class="cls-2" d="M2226.43,1931.76c-33.31-48.71-71.33-94.57-104.82-143.18-1.44-2.09-12.18-18.93-11.17-19.81,7.64,1.19,23.45-2.61,28.98,2l38.29,53.79c11.59,15.81,24.92,32.06,36.75,47.69,4.28,5.66,19.69,32.59,24.97,32.59,2.18,0,3.82-1.38,5.05-3.05l96.95-133.04h29l-61.4,85.48-55.52,72.6-1.36,122.64c-2.03,6.2-20.06,2.19-25.72,3.28v-121Z"/>
  <path class="cls-1" d="M2264.43,1102.76l-30,4c-14.34-37.71-29.62-77.02-43.83-113.56-2.92-7.51-5.79-21.05-8.63-26.97-1.31-2.73-2.2-4.08-5.51-3.47-13.46,34.69-24.71,70.39-37.7,105.25-9.16,24.57-21.08,51.04-30.32,76.75-9.38,1.71-25.91,5.89-34,10l102.02-283.99c2.81.44,5.08,6.53,6.04,8.93,29.32,73.37,53.91,149.17,81.94,223.06Z"/>
  <path class="cls-1" d="M748.43,1000.76l-28,6c-.11-.28-2.71-1.3-3.54-3.39-5.51-13.97-10.3-30.33-16.3-43.78-2.89-6.49-6.07-7.71-9.08-.84-6.15,14.03-9.76,31.47-15.16,44.55-.93,2.26-3.82,1.28-3.92,1.46-7.35-4.71-17.31-9.89-26-10,14.88-37.57,30.43-74.93,43.93-113.07l7.04-12.91c16.55,39.64,32.77,79.61,48.38,119.63,1.61,4.14,1.48,9.35,2.65,12.35Z"/>
  <path class="cls-1" d="M2206.43,860.76c-.11-.18-2.97.86-3.91-1.48-4.02-10.04-9.7-24.17-7.24-34.67l85.2-232.79,102.92-51.15c10.06-1.4,8.23,3.1,10.57,3.93,19.33,6.87,65.5,30.61,81.42,32.31,13.29,1.42,50.5-7.73,66.28-9.9,10.55-1.45,22.08-2.13,32.75-2.25,1.01-4.68-.6-3.21-2.57-4.48-23.44-15.05-59.78-27.43-85.86-39.67-3.02-1.42-12.13-8.29-15.12-9.68-6.56-3.04-34.86-16.11-39.48-15.97-1.22.04-11.32,3.25-13.35,4.02-1.75.66-1.86,3.07-3.17,3.63-39.74,16.86-78.62,35.52-118.43,52.16,36.37-107.5,77.91-213.24,117.35-319.63,28.05-75.68,34.28-164.91,131.57-172.43,41.17-3.18,108.8-2.9,150.16-.02,61.68,4.3,106.14,44.44,110.98,107.02-.04,186.35-.2,372.74-.07,559.07-16.36,3.8-25.82,21.02-36.37,32.63-1.77,1.95-1.77,4.3-5.62,3.36.39-10.17-4.06-23.35-4.01-32.99.04-8.08,3.89-19.48,4.08-27.92.99-42.26.65-81.23-15.16-121.01l-30.9-82.06-12.04,107.99c-16.56-15.17-29.28-39.16-30-61.99l-7.73,25.24c-3.04,33.66,5.85,66.54,19.73,96.75-27.07-15.93-44.33-42.57-63.96-66,1.75,37.78,2.91,86.6,28.04,116.94,6.81,8.22,21.4,17.1,25.64,24.36,3.02,5.17,13.49,39.51,10.31,42.71-15.68,1.44-10.6.5-15.98-6.96-17.33-24.02-44.7-34.41-74.03-33.04-4.07,4.17,12.35,21.38,3.01,20.02-8-1.16-29.11-13.58-39.06-16.97-2.46-.84-12.9-3.99-13.93-3.05,6.54,19.18,34.41,24.21,34,45.98-49.03,5.68-98.08,11.57-147.04,17.98-68.13,8.93-142.11,23.91-209.39,40.61-4.72,1.17-20.07,3.33-19.59,9.41Z"/>
  <path class="cls-1" d="M58.43,768.76c.12-200.89-.3-401.84.26-602.74,8.03-56.62,48.89-98.65,106.67-103.33,40.53-3.28,121.99-3.92,161.86.28,36.4,3.84,70.95,24.44,85.23,58.77,43.53,118.76,91.97,235.73,133.97,355.01-17.97-4.25-36.53-4.09-54.79-6.19-81.86-9.42-168.24-24.24-250.23-29.77-39.28-2.65-117.75,32.41-160.08,43.96-3.22.88-5.9-2.13-4.89,4.01,28.29-1.83,56.51-4.02,84.97-6.01,9.98-.7,24.56-4.91,34.02-4.09,14.36,1.25,34.97,27.78,50.18,32.1l97.71-16.05,136.05,32.14c11.33,3.56,75.94-26.85,79.04-24.09,24.81,70.33,53.54,139.32,80.05,208.97,3.8,9.98,6.32,21.44,9.97,31.03-4.18-.18-8.31-.17-12.47.51-58.82,9.61-117.7,19.47-176.51,29.12l-13-4.66c-1.75-6.86,10.62,2.91,7.96-3.94-1.89-4.86-9.59-8.86-10.9-11.11-1.21-2.07-2.91-20.25-8.05-17.91-1.49.68-14.6,25.99-15.02,29.03-.48,3.5,1.88,4.38,3.96,2.91.37-.26-.25-2.11.19-2.38,8.29-4.9,7.39,3.72,3.96,9.55-2.8,4.77-29.62,15.34-32.12,12.87,1.8-8.71-5.65-49.34-13.33-51.81-6.52-2.1-20.29,13.72-24.7,18.79-3.35,3.86-2.45,10.21-7.98,9-.11-7.51,4-14.64,1.11-22.12l-17.11-15.86c6.88-.95,13.15,5.11,18.98,6.02,2.74.42,3.86-.08,2.98-2.99-.46-1.52-12.75-22.82-13.82-23.67-3.64-2.89-12.85-2.89-16.13-10.39l11.98-2.99c2.52-3.62-10-16.05-12.78-20.19-2.55-3.8-2.21-11.47-8.18-11.78-1.96.42-19.11,31.3-18.99,35.13.34,10.95,17.45-4.12,13.97,8.85-8.6-2.94-11.88,3.2-16.19,4.83-26.15,9.91-32.69,14.32,2.18,17.18.57,4.2.27,3.25-2.53,4.47-8.99,3.9-23.39,5.51-23.5,18.5,8.15,1.99,8.98-1.05,8.03,9.02l10.85-4.14,7.13,8.12c-6.69-1.09-10.93,6.25-16.99,6.22-4.88-.02-16.54-8.2-22-8.2h-56c-1.31,0-5.04-6.82-4.97-9.07.12-3.81,4.63-5.25,5.58-8.33.68-2.23.93-14.1.39-14.6-.42-.39-6.78.59-10.02-.98-.86-.42-7.67-9.23-7.96-10.06-1.78-5.04,5.17-2.13,5.98-2.97,1.33-1.39-11.17-35.47-13.01-36.04-1.74-.54-3.78-.46-5.15,1.29-2.14,2.73-19.61,31.81-19.88,33.75-1,7.06,13.36.03,17.01.98,4.64,9.67-8.53,7.6-14.14,9.86-5.23,2.1-8.43,8.11-14.84,8.19-.33,4.07,3.94,5.89,4,9.97,6.85.03,13.12-4.05,19.99-3.99.78,6.55-9.35,5.53-14,9.01-2.47,1.85-6.44,11.69-11.98,6.97-2.29-1.96,6.06-7.37,5.99-11.99-12.78-.06-4.71-6.98-6.82-10.05-1.63-2.38-13.63-4.57-15.01-9.28-1.53-5.21,8.94-20.66,11.82-25.65-2.94-4.81-11.58-1.34-13.97-6.06-1.8-3.55,3.96-2.84,4.1-4.03.27-2.28-15.31-36.95-17.94-42.09-.73-1.43-.95-6.68-4.17-2.85-.53.63-1.48,12.81-2.66,16.36-1.61,4.88-6.65,11.8-6.88,17.01-.16,3.75,3.98,7.17,3.53,9.59-.9,4.84-15.94,2.64-20,3.05-.09,5.71,6.09,7.81,8.85,12.12,1.39,2.17.87,5.95,2.14,8.01.35.57,14.04,1.19,8.99,5.85-1.04.96-22.31-4.13-28,.03-4.94,10.96,20.71,17.09,19.81,22.68-.2,1.21-3.68,4.69-4.79,7.32-7.23,17.2-2.57,30.23-27.01,25.98Z"/>
  <path class="cls-1" d="M2015.24,110.01c11.36,22.7,7.85,39.19,9.11,63.84,2.19,43.06,2.8,86.45,1.96,129.79l-79.84,212.15c-5.62,3.39-27.13-2.56-35.06-3.01-36.37-2.07-74.08,11.64-110,16.17-6.92-.4-18.01-13.72-24.47-18.13-3.81-2.6-22.34-13.91-25.45-14.23-5.73-.59-15.42,1.65-21.51,2.71-20.93,3.65-49.26,15.95-68.57,17.43-25.92,1.99-58.08-10.18-84.97-7.99,25.38-77.95,44.93-157.62,63.45-237.53,15.61-67.37,22.67-198.7,109.71-210.29,38.88-5.17,102.4-.43,143.91-.09,4.74.04,9.06-2.23,13.82-2.16,39.32.6,89.37,14.28,107.9,51.32Z"/>
  <path class="cls-1" d="M1179.74,93.42c53.02,63.45,50.6,234.22,46.78,314.42-.69,14.57-1.77,40.31-4.18,53.82-1.35,7.56-15.8,17.81-19.76,24.67-2.09,3.63-2.14,13.05-6.11,15.56s-8.81-2.08-13.13-3.04c-54.92-12.2-116.13-31.21-171.88-26.07-42.07,3.88-84.25,11.88-126.45,15.37l-57.71-17.25c-1.7-33.06-3.96-66.06-2.94-99.22,2.12-69.1,27.05-227.07,73.4-278.68,49.06-54.63,155.85-24.35,221.77-32.33,21.23,1.96,46.72,16.59,60.22,32.75Z"/>
  <path class="cls-1" d="M1932.44,546.77l-117.98,317.02-341.56-1.5c-3.62-16.39-11.08-20.39-5.91-37.97,10.07-34.24,27.57-72.01,39.52-106.47,19.69-56.79,37.59-114.27,58.31-170.69l108.51-20.31,64.34,31.85c48.75-7.48,97.13-17.94,145.87-26.02,16.7,3.02,32.11,12.28,48.9,14.09Z"/>
  <path class="cls-1" d="M758.43,698.76c18.02-47.14,33.95-95.37,52.64-142.36,7.15-17.97,17.36-34.5,21.39-53.64,13.72,2.55,31.56,10.87,44.9,12.08,58.82,5.36,132.26-4.32,192.1-6.06,31.6-.92,74.82,6.24,105.76,14.19,2.15.55,13.23,4.15,13.31,4.9l-70.52,189.56c-.02,2.24-3.18,4.27-3.57,5.33-54.65-8.78-109.08-21-163.55-31.45-35.01-6.72-81.47-19.44-115.44-22.57-16.58-1.53-49.8,20.12-66.55,27.5-3.37,1.48-6.73,2.54-10.46,2.52Z"/>
  <path class="cls-2" d="M748.43,1000.76c38.34,98.53,80.56,198.03,113.98,299.02-4.32,84.9,18.08,182.17,118.94,189.06,50.59,3.46,129.52,3.49,180.06-.11,54.18-3.86,92.09-35.57,96.99-91.01.87-9.77-.88-19.97.25-29.75,2.22-19.2,13.76-32.46,21.21-48.79,25.83-56.68,46.65-116.11,68.58-174.42l26,12c-19.33,51.85-34.03,105.49-56.53,156.47-6.11,13.85-23.93,41.03-26.99,53.01-2.87,11.27-.32,32.88-2.73,47.27-11.32,67.84-62.73,103.71-128.79,109.21-48.1,4.01-131.7,3.7-180.04.11-112.41-8.35-156.25-115.86-147.4-216.6-39.55-98.75-72.77-200.85-111.53-299.47l28-6Z"/>
  <path class="cls-1" d="M1810.42,880.77l-59.23,157.57-235.49-31.39c-2.7-1.97-10.98-38.42-9.24-40.15l109.46-21.55c23.53-3.81,47.77-4.96,71.26-8.74,1.8-.29,16.03-1.87,11.25-5.75l-71.27-17.75-135.68-6.32c-5.87-.2-10.6-9.58-3.74-11.63,18.96.01,37.13-6.21,55.72-8.28,50.97-5.68,104.61-4.52,155.94-8.06,22.05-1.52,26.09-1.37,48.07,0,20.74,1.3,42.17.91,62.96,2.04Z"/>
  <path class="cls-2" d="M2108.43,1144.76c-9.55,26.57-33.01,81.39-37.53,105.47-3.28,17.47.46,44.61-.38,63.62-1.71,38.7-7.69,84.23-25.04,118.96-63.55,127.16-212.5,81.71-327.83,89.75-74.78-12.3-109.94-57.87-139.56-122.44-25.46-55.49-49.84-120.36-67.07-178.93-1.17-3.98-2.11-17.62-2.58-18.42,9.28-5.18,21.97,2.69,32,2,17.81,59.66,39.18,121.58,64.58,178.42,34.58,77.4,64.46,104.17,152.33,107.67,43.64,1.74,106.72,1.08,150.07-2.12,131.2-9.7,133.85-137.47,131.49-240.51l31.75-89.82c.72-1.61,2.27-2.88,3.79-3.65,8.09-4.11,24.62-8.29,34-10Z"/>
  <path class="cls-1" d="M1044.43,910.76c-18.11,48.47-38.14,98.17-56,146-9.07-.81-20.67-4.16-28.64-8.36-13.69-7.2-26.05-24.24-38.87-33.67-26.48-19.48-41.21-16.5-73.41-18.06-22.99-1.11-46.11.68-69.08-1.92-12.98-34.12-27.12-69.41-40-104,39.59,1.79,79.41,1.67,118.98,4.02,42.95,2.55,87.28,5.76,130,10,19.04,1.89,37.81,6.99,57.02,5.98Z"/>
  <path class="cls-1" d="M1558.44,1152.77c-.28,4.61-.71,3.56,2.95,4,47.04,5.54,94.43,9.29,140.99,18.07-3.16,13.44-35.56,111.65-41.27,113.6-7.06,2.41-57.65-1.16-64.62-4.73-4.2-2.16-10.71-21.55-12.67-27.33-12.71-37.37-22.18-77.78-32.37-115.63-7.16-26.61-14.7-53.15-21.01-79.97l209.79,11.15c-5.8,17.85-10.87,36.46-17.72,53.92-1.75,4.47-5.75,17.35-9.4,18.6l-154.67,8.33Z"/>
  <path class="cls-1" d="M1540.43,1204.76c-10.03.69-22.72-7.18-32-2-5.66-9.57-4.42-11.62-7.69-23.31-19.2-68.6-37.88-137.36-54.33-206.68l-11.34,23.63c-16.79,54.65-40.82,107.22-60.64,160.36l-26-12c30.27-80.5,58.51-161.86,88.51-242.49l12.46-23.49c23.54,66.63,38.4,135.83,58.45,203.56,9.8,41.03,20.52,81.99,32.58,122.42Z"/>
  <path class="cls-1" d="M1790.43,1024.76c13.49-1.75,30.74.78,44.98-.02,31.65-1.78,68.77-8.55,100-8.14,17.66.23,39.15,11.77,57.01,14.18l-11.54,5.43-94.97,14.53c-9.71,18.41-10.77,29.83,6.48,43.07,13.71,10.52,32.36,6.98,49.02,8.98,19.56,2.35,39.14,7.14,59.01,5.99l-13.98,17.98c11.54.95,22.8-1.65,33.98-3.98,1.72,1.76-7.41,15.19-7.99,17.99l-125.99,5.98,49.98-9.99c.71-3.58-1.75-4.98-4.11-6.87-14.86-11.89-85.31-19.82-106.8-21.2-22.54-1.44-44.55,5.47-67.07,4.07l28.04-86.57c.73-2.14,2.47-1.23,3.95-1.42Z"/>
  <path class="cls-1" d="M1434.43,834.76c-.3,1.66-8.14,23.05-8.97,24.03-1.1,1.32-2.28,1.96-4.01,1.99l-235.01,1.99c-.98,6.04,1.5,3.19,4.86,4.03,26.67,6.69,58.44,2.44,83.58,8.51,7.22,1.74,25.92,8.77,8.38,11.26-6.62.94-16.96,1.87-23.75,2.27-54.63,3.17-109.35,3.82-164.17,5.83-4.3.16-7.99,1.84-11.92,2.12-7.06.51.9-8.55,2-12.03,5.93-18.7,14.26-34.6,21-52l328,2Z"/>
  <path class="cls-1" d="M1964.43,1218.76c.78.13,2.05,1.82,3.06,1.59,3.7-.86,6.29-13.73,19.91-13.66,6.06.03,1.61,8.77.05,12.08-7.07,15.04-16.14,19.77-32.04,21.96-3.06.42-24.49,2.32-25.71,1.9-3.64-1.23-2.94-7.8-6.29-9.87-11.54,9.36-15.51,11.18-23.97-2.03l-1.01,14.01-17.97-11.99-.03,13.99c-11.73-4.17-17.31-4.23-28.85.15l-141.14-4.14c3.72-10.21,8.42-29.45,13.1-37.89,1.33-2.4,3.11-3.92,5.94-4.11,16.58.81,33.57,4.85,49.98,5.98,38.55,2.64,77.29,5.68,115.89,8.11,23.89,1.51,44.59-.27,69.08,3.92Z"/>
  <path class="cls-1" d="M656.43,890.76c-12.88,32.54-25.44,65.33-38,98-3.25-3.66-8.43-4.82-11.89-7.21-1.87-1.29-1.91-4.41-2.26-4.67-1.15-.85-13.99,10.19-15.86-8.1,4.87-.18,12.43-1.77,11.99-8.01-22.48.77-18.34-17.75-22.01-34l-10.27,24.68-6.98,6.91c-10.6-6.58-62.95-8.45-58.54-26.22.82-3.3,12.86-9.65,16.49-11.71,41.81-23.72,79.73-27.28,126.99-31.16,3.84-.32,6.86-1.15,10.34,1.49Z"/>
  <path class="cls-1" d="M1370.42,1004.77c.73.65-6.29,17.97-7.25,18.16-3.03.59-9.31-2.15-13.66-2.25-50.3-1.13-97-8.28-146.02-11.98-21.98-1.66-49.56.65-70.16-1.84-4.42-.54-8.81-3.48-12.93-5.1l250.01,3.01Z"/>
  <path class="cls-1" d="M1384.42,960.78l-40.91,4.06c-66.53,3.15-133.45,4.23-200,6-15.66.42-31.43-.46-47.07-.1-.4-2.89,5.43-3.06,7.55-3.41,70.93-11.87,165.06-14.9,237.51-10.64,13.57.8,28,7.04,42.92,4.09Z"/>
  <path class="cls-1" d="M1176.43,1054.76c1.34-4.64,5.19-3.87,8.9-4.11,23.97-1.59,50.03-1.55,74.01-1.98,31.63-.58,63.58-.22,95.13,1.12l-5.34,13.06-172.69-6.09c-.11-.72.21-1.58,0-2Z"/>
  <path class="cls-1" d="M1254.43,906.76v-5.99s101.1-1.9,101.1-1.9c17.06-7.76,36.67-2.74,54.89-4.09-.16,4.01-2.37,11.99-6.99,11.99h-149Z"/>
  <path class="cls-1" d="M1830.43,912.76c4.17,1.9,19.68,8.19,15.94,13.91-.71,1.09-20.41,9.2-23.94,10.09,2.7-7.4,5.07-15.94,8-24Z"/>
  <path class="cls-1" d="M1074.43,1076.76c6.04,1.72,8.72-3.54,13.99-3.99.11,1.98-.11,4,.01,5.99-3.22-1.07-12.5,3.12-13.99,1.99-.38-.28.25-3.06-.01-3.99Z"/>
  <path class="cls-1" d="M1104.43,1086.76c-4.8-1.51-5.65-3.9-6-4-.61-8.42,7.26-2.81,6,4Z"/>
  <path class="cls-1" d="M2012.43,1150.76c-.32,5,2.07,9.25-4,8,.31-5.01-2.06-9.25,4-8Z"/>
  <path class="cls-1" d="M1124.43,1092.76c3.33-.59,8.9-6.14,8,2-2.63-.01-6.63.96-8-2Z"/>
  <path class="cls-1" d="M2014.43,1164.76c-.41.28,1.56,6.05-5.99,3.99-.11-1.32.06-2.67,0-3.99h6Z"/>
  <path class="cls-1" d="M1114.43,1088.76c10.2,1.13,4.04,1.86,6,4-4.73.08-6.94,1.35-6-4Z"/>
  <path class="cls-1" d="M2806.43,1428.76c-.38,3.86,1.41,4.56-4,4,.47-3.74-1.54-4.59,4-4Z"/>
  <path class="cls-1" d="M1968.43,1210.76c-.57,3.57,1.69,4.63-4,4-.01-4.18-.89-4.47,4-4Z"/>
</svg>