<?xml version="1.0" encoding="UTF-8"?>
<svg id="_Слой_1" data-name="Слой_1" xmlns="http://www.w3.org/2000/svg" version="1.1" viewBox="0 0 1920 1080">
  <!-- Generator: Adobe Illustrator 29.2.1, SVG Export Plug-In . SVG Version: 2.1.0 Build 116)  -->
  <defs>
    <style>
      .st0 {
        fill: #f7f6f5;
      }

      .st1 {
        fill: #4a332f;
      }
    </style>
  </defs>
  <path class="st1" d="M956.45,1014.29c-2.93-2.61-7.07-3.67-10.01-6.47-9.1-8.67-1.73-26.59,2.24-36.52,1.56-3.89,3.33-8.75,5.82-11.94-1.18,13.17-3.28,26.33-2.44,39.61,3.9,9.23,16.62,7.53,18.31-2.74,1.32-8.06-2-25.22-2.92-33.97-.09-.83-.62-3.25.96-2.9,4.64,14.64,20.94,38.51,4.16,50.69-2.24,1.63-5.31,2.16-7.06,4.24h-9.05Z"/>
  <path class="st0" d="M1445,533.49h-.65c.19-2.92.37-8.24,0-10.99h.65v10.99Z"/>
  <path class="st1" d="M1165.57,177.04c12.86,8.42,25.61,18.25,37.1,28.48,19.67,17.5,38.56,40.07,40.79,67.45,25.08,3.91,45.25,20.89,60.62,40.02,74.01,92.09,86.88,237.12,47.23,346.21-16,44.03-50.55,109.89-98.14,124.81-2.97.93-6.31.52-9,2.31-2.8,19.98-12,35.97-25.14,50.82-50.27,56.85-141.13,94.29-215.75,102.18-102.57,10.84-220.35-21.01-294.06-94.96-15.66-15.71-28.78-34.99-31.59-57.58-6.19-2.3-12.75-3.73-18.8-6.4-29.53-13.03-53.1-48.59-68.04-76.07-59.03-108.55-56.73-250.1,4.4-357.26,18.23-31.95,43.85-67.02,82.43-73.96,4.28-29.37,23.51-51.45,44.75-70.46,118.26-105.85,312.27-111.25,443.19-25.59ZM1182.36,202.89c-115.13-91.59-291.4-98.25-415.2-19.93-25.96,16.42-64.71,46.6-74.84,76.38-2.43,7.16-3.59,15.29-4.35,22.8-4,1.54-8.19,1.34-12.5,2.36-47.38,11.21-83.08,85.97-97.38,128.15-33.44,98.6-22.26,215.78,33.01,304.29,17.58,28.16,40.69,57.01,76.44,59.59,1.32,19.55,8.32,35.65,20.78,50.47,25.57,30.43,69.45,57.67,105.79,73.37,119.13,51.45,276.1,34.47,375.85-50.36,22.18-18.86,43.68-42.52,43.71-73.55,26.29-1.64,47.28-18.7,62.67-38.61,64.14-83,80.38-206.71,52.82-306.61-11.86-43-43.78-115.56-83.61-138.69-10.21-5.93-20.36-8.35-31.79-10.54-.99-34.25-26.39-59.23-51.41-79.13Z"/>
  <path class="st1" d="M1347.41,351.26c6.94,15.04,14.14,30.16,19.7,45.91,6.85,19.44,13.15,42.19,16.33,62.51,2.23,14.25,4.56,29.62-2.74,42.8-.45-3.79.42-7.47.35-11.33-.67-38.2-17.72-90.76-33.32-125.66-.83-1.87-5.98-10.57-5.4-11.56.15-.25,4.43-3.23,5.08-2.67Z"/>
  <path class="st1" d="M1381.66,556.11c.26.27,2.05,6.13,2.3,7.08,5.22,19.86-4.56,59.18-10.5,79.39-5.17,17.61-12.48,37.37-20.42,53.9-.85,1.77-4.84,11.1-6.51,10.8-.81-.15-3.73-2.67-3.55-3.99.3-2.24,5.39-11.11,6.68-14.06,15.46-35.41,32.4-89.63,31.38-128.3-.01-.53-1.5-6.96.61-4.82Z"/>
  <path class="st1" d="M934.47,948.38c.35,1.85-.51,1.04-1.41,1.46-15.38,7.22-44.76.59-61.42-2.93-16.64-3.52-33.34-8.24-49.31-14.02-13.06-4.72-25.77-10.44-38.35-16.25.2-2.8.58-5.97,3.96-4.94,4.13,1.27,10.78,5.37,15.36,7.26,19.63,8.11,40.54,15.36,61.25,20.17,22.63,5.26,46.67,9.11,69.92,9.24Z"/>
  <path class="st1" d="M1136,910.98c.44.26,2.42,4.05,1.75,5.1-.29.45-8.09,4.19-9.42,4.82-30.39,14.54-80.64,29.86-114.06,31.99-9.96.63-19.04-.31-28.1-4.52-.15-1.15,1.45-.63,2.18-.56,11.2,1.06,23.12-.54,34.25-2.09,38.69-5.41,73.26-17.21,108.76-32.76,1.19-.52,3.28-2.76,4.63-1.97Z"/>
  <path class="st1" d="M540.91,556.12c-.78,6.37-.58,12.67,0,19.06s1.72,14.08,2.75,20.51c5.91,36.85,18.09,74.56,35.3,107.55-1.14,1.76-4.27,4.6-6.01,2.09-2.22-3.21-4.92-9.57-6.68-13.35-10.48-22.5-19.15-50.06-24.55-74.32-3.99-17.95-9.47-42.84-2.28-60.12.4-.95-.4-1.76,1.45-1.42Z"/>
  <path class="st1" d="M578.94,353.29c.4.62.12,1.89-.08,2.63-1.4,5.28-7.93,15.85-10.48,21.84-12.88,30.29-27.44,80.03-28.11,112.76-.07,3.23,1,7.02.64,9.7-.12.88-.39,1.94-1.29.96-.83-4.78-3.31-9.78-3.82-14.61-1.49-14.21,4.46-39.56,8-53.9,6.94-28.12,17.35-55.49,30.69-81.13.57-.36,4.31,1.54,4.44,1.74Z"/>
  <path class="st1" d="M1136.65,147.59c-.73.46-2.29.04-3.15-.2-5-1.44-11.97-5.98-17.09-8.11-21.71-9.07-46.45-17.36-69.47-22.29-19.13-4.1-39.94-7.31-59.47-6.44,6.83-4.34,16.2-5.23,24.26-4.88,34.78,1.53,84.89,17.24,116.41,32.22,1.41.67,8.85,4.33,9.31,4.92.9,1.19-.15,4.38-.8,4.78Z"/>
  <path class="st1" d="M967.42,100.51c-1.21.13-.52-1.35-.45-2.06.96-9.67,3.28-19.49,3.72-29.25.33-7.24-1.69-15.46-10.62-14.52-6.8.71-8.92,6.53-8.84,12.57l3.27,32.62-3.04-5.68c-4.49-12.18-16.59-32.49-4.4-43.45s32.39-4.61,33.25,12.07c.57,11.05-9.26,27.24-12.88,37.7Z"/>
  <path class="st1" d="M925.43,106.98l3.23,1.93-5.17,1.3c-.43,0-.86,0-1.29,0-2.31-1.43-6.55-.08-9.05.65-36.21,3.19-76.57,14.37-109.85,28.77-2.81,1.21-15.66,8.11-17.18,8.05-1.73-.06-3.61-4.41-2.06-5.65.52-.42,2.25-.48,3.23-.96,26.66-13.13,53.87-23.13,83.08-29.37,16.08-3.43,39.17-7.95,55.06-4.71Z"/>
  <path class="st1" d="M530.57,521.87c.15,1.16-1.45.63-2.17.56-9.16-.83-29.93-5.82-37.61-2.55s-7.58,13.83.21,16.67c3.79,1.38,8.13.66,12.1.81l28.11-3.22c.07.81-1.39,1.24-2.02,1.52-8.12,3.6-23.14,10.74-31.41,11.89-24.92,3.48-27.96-35.37-6.15-38.45,11.63-1.64,27.94,9.1,38.93,12.76Z"/>
  <path class="st1" d="M1444.35,522.51c.37,2.75.19,8.07,0,10.99-.02.27-.52,1.25-.65,1.94l-.65,1.94c-7.76,13.91-17.9,11.21-30.71,6.47l-22.28-9.7,32.61,3.9c6.32.58,15.13-2.77,14.42-10.54-.77-8.52-11.2-8.76-17.66-8.25l-26.15,2.61c.17-1,1.19-1.23,1.95-1.59,7.63-3.6,24.69-11.55,32.59-11.35,6.84.18,15.54,6.48,16.51,13.59Z"/>
  <path class="st1" d="M1394.86,556.51c9.13,10.36,15.12,22.99,13.94,37.4-.48,5.9-3.71,14.93-10.77,15.05-.28,0-4.94-1.77-5.2-1.97-.81-.64-2.4-4.3-2.6-5.47-1.27-7.26,2.6-11.8,4.07-18.24,2.94-12.92-5.37-27.13-11.97-37.84-.26-.81.16-1.29.95-.95,1.51.65,9.86,10.06,11.58,12.02Z"/>
  <path class="st1" d="M989.65,963.64c-1.54-1.24-12.8-12.16-13.16-13.01-.34-.79.14-1.22.95-.95,10.06,5.96,22.69,13.85,34.85,12.21,7.64-1.03,12.59-5.58,21.34-3.14s8.57,12.88.94,16.37c-12.48,5.71-34.85-3.37-44.92-11.49Z"/>
  <path class="st1" d="M944.81,108.27c-5.06-2.12-9.69-5.39-14.71-7.58-3.68-1.61-10.3-4.26-14.13-4.61-9.52-.86-16.45,6.48-26.79,4.16s-9.7-14.93,1.05-17.78c18.46-4.89,41.86,9.75,53.28,23.55.6.73,1.57,1.04,1.29,2.26Z"/>
  <path class="st1" d="M980.36,106.33c-.48.24-1.27.34-1.94.65.52-.79.92-1.63,1.55-2.34,11.7-13.17,29.15-24.58,47.88-22.86,8.77.81,17.88,9.05,9.33,16.41-8.22,7.08-20.99-2.48-29.89-2.16-7.77.28-19.79,6.82-26.93,10.29Z"/>
  <path class="st1" d="M942.23,953.55c-13.49,13.14-33,28.37-53.53,22.19-9.55-2.88-9.34-14.89,1.27-17.25,9.01-2.01,17.63,4.66,27.33,3.42,6.49-.83,19.3-6.68,24.93-10.29l.51.31-.51,1.63Z"/>
  <path class="st1" d="M528.45,606.97c-3.19,2.41-9.06,1.66-11.41-1.6-6.74-9.33-3.74-24.99.3-35.03,4.24-10.54,13.92-18.87,21.97-26.5-.31,2.67-2.53,4.76-3.8,7.18-4.32,8.18-9.91,20.5-8.64,29.8,1.08,7.9,7.23,14.28,3.75,22.82-.24.58-1.8,3.05-2.16,3.33Z"/>
  <path class="st1" d="M537.68,511.52c-5.77-5.46-12.39-11.16-16.68-17.89-6.47-10.16-10.48-25.87-5.97-37.39s17.72-8.67,16.84,4.54c-.34,5.07-4.28,10.36-5,15.69-1.28,9.45,5.68,25.76,10.82,33.76.06.41-.08.91,0,1.29Z"/>
  <path class="st1" d="M686.59,204.83c-14.55,12.37-28.55,26.7-40.45,41.61-1.68,1.01-5.09-2.01-5.08-3.43,0-1.2,13.5-16,15.5-18.1,15.88-16.71,33.84-31.97,52.68-44.9.82,1.09,3.42,3.98,2.65,5.17-8.46,6.48-17.17,12.76-25.3,19.66Z"/>
  <path class="st1" d="M1232.76,195.14c14.8,12.06,33.94,29.58,45.38,44.74,3.03,4.01,2.94,4.6-1.81,7.04-19.76-23-41.78-43.84-66.25-61.74.22-1.95,1.19-5.13,3.72-4.38,2.32.69,16.03,11.95,18.96,14.34Z"/>
  <path class="st1" d="M1275.44,822.77c-13.48,16.24-34.56,35.7-51.49,48.35-1.68,1.26-11.01,8.35-12.21,7.45.44-1.74-1.98-2.73-2-2.92-.3-2.67,8.35-7.58,10.53-9.33,19.42-15.63,37.58-32.59,54.14-51.56,1.61-1.85.42-3.66,3.6-2.13,5.69,2.74.27,6.74-2.56,10.14Z"/>
  <path class="st1" d="M652.47,820.02c12.5,13.99,25.39,27.33,40.01,39.16,6.22,5.03,12.91,9.46,19.09,14.54,1.47.5-1.51,4.29-1.98,4.59-.88.56-1.46-.07-2.16-.47-6.08-3.48-15.73-11.43-21.41-16.07-16.37-13.38-32.05-29.48-44.97-46.19,0-.93,3.54-3.6,4.15-3.5.53.09,6.26,6.82,7.27,7.95Z"/>
  <path class="st1" d="M949.98,104.39l-27.7-29.48c-4.34-8.43,8.19-15.2,12.86-7.05,6.04,11.62,10.08,24.32,14.84,36.53Z"/>
  <path class="st1" d="M1387.49,517.98c-.72-.67,2.95-3.98,3.53-4.54,4.25-4.06,9.05-7.72,13.4-11.65,3.32-3.01,10.42-11.78,14.39-12.25,2.82-.33,6.11-.06,7.72,2.65,4.85,8.16-6.62,12.35-12.22,14.82-8.79,3.88-18.19,6.69-26.83,10.97Z"/>
  <path class="st1" d="M507.73,491.72c5.1,4.47,9.63,11.33,15.75,14.95l12.91,11.96c-5.02-1.59-9.61-4.45-14.51-6.48-6.33-2.62-21.19-6.73-25.25-11.57-6.51-7.75,3.09-15.88,11.1-8.86Z"/>
  <path class="st1" d="M1425.25,556.47c.79.95,1.34.6,1.6,2.58,1.27,9.78-7.82,10.11-13.52,4.5l-27.78-25.53,32.46,13.09c2.69,1.51,5.24,2.94,7.24,5.36Z"/>
  <path class="st1" d="M995.49,78.82l-24.18,25.58c-.55-1.73.97-.99,1.26-1.76,4.32-11.33,8.32-23.01,13.19-34.19,9.1-10.44,21.21,2.34,9.72,10.38Z"/>
  <path class="st1" d="M534.45,538.66c-.25.41-.38.9-.65,1.29-.15.22-.45.42-.65.65l-1.29,1.29c-6.76,6.82-17.04,16.77-24.43,22.61-4.25,3.36-10.19,4.47-12.57-1.45s4.73-9.91,9.05-11.94c7.93-3.71,24.33-7.86,30.52-12.45Z"/>
  <path class="st1" d="M925.04,980.93l25.59-26.73-13.09,32.46c-5.33,13.89-21.95,6.86-12.5-5.72Z"/>
  <path class="st1" d="M974.54,957.43c7.96,9.17,16.72,17.57,24.71,26.66,3.43,9.98-8.35,13.92-13.67,5.77-5.06-7.76-7.6-23.71-12.34-32.43h1.29Z"/>
  <path class="st1" d="M1332.39,313.92c9.99-1.65,9.81,13.65.56,12.75-7.37-.71-7.67-11.58-.56-12.75Z"/>
  <path class="st1" d="M593.65,742c-1.99,4.03-10.54,3.02-11.77-2.97-2.18-10.62,17.68-8.99,11.77,2.97Z"/>
  <path class="st1" d="M593.07,323.93c-6.47,8.13-16.71-4.67-8.4-9.34,6.93-3.9,12.54,4.14,8.4,9.34Z"/>
  <path class="st1" d="M1337.5,732.79c4.25,2.23,3.15,10.51-2.07,11.34-12.7,2-8.84-17.08,2.07-11.34Z"/>
  <path class="st1" d="M1174.64,895.65c3.98,1.96,2.64,10.61-2.73,11.35-11.6,1.61-8.8-17.01,2.73-11.35Z"/>
  <path class="st1" d="M755.23,895.65c3.56,1.76,3.27,10.44-2.72,11.35-11.29,1.72-8.99-17.14,2.72-11.35Z"/>
  <path class="st1" d="M747.25,152.41c2.32-1.82,8.33-1.44,9.66,1.91,4.23,10.64-13.1,13.15-11.84,2.07.12-1.08,1.43-3.39,2.18-3.98Z"/>
  <path class="st1" d="M1300.74,267.37c8.09-1.16,10.42,9.86,4.06,11.86-10.21,3.21-11.46-10.8-4.06-11.86Z"/>
  <path class="st1" d="M617.65,779.23c9.31-2.43,11.61,12.44,1.78,12.17-6.84-.19-8.31-10.46-1.78-12.17Z"/>
  <path class="st1" d="M615.42,278.69c-6.8-5.55,4.28-16.54,9.01-9.33s-4.32,13.16-9.01,9.33Z"/>
  <path class="st1" d="M1306.51,789.85c-7.14,6.31-14.7-5.2-7.53-9.79,6.84-4.38,12.96,4.99,7.53,9.79Z"/>
  <path class="st1" d="M1174.53,162.22c-7.21,5.94-14.39-7.39-7.4-10.31s13.54,5.25,7.4,10.31Z"/>
  <path class="st0" d="M925.43,106.98c2.92.6,5.6,1.25,8.39,2.27l3.88,2.9c-2.36,1.04-3.32-1.12-3.73-1.23-3.39-.95-6.99-.76-10.48-.7l5.17-1.3-3.23-1.93Z"/>
  <path class="st0" d="M703.77,173.55c-.95,1.94-10.33,8.8-11.63,7.74-.68-.55,1.25-2.09,1.53-2.32,1.11-.92,3.17-2.04,4.44-2.85,1.49-.95,2.67-3.27,5.66-2.57Z"/>
  <path class="st0" d="M1226.17,177.81c1.29,1.06,6.3,5.98,1.86,3.67-1.42-.74-6.58-4.57-7.86-5.73-.42-.38-2.05-1.54-1.35-2.2,1.03-.97,6.48,3.55,7.35,4.26Z"/>
  <path class="st0" d="M643.66,833.34l-5.82-4.84c-8.17-13.77,7.04,3.55,5.82,4.84Z"/>
  <path class="st0" d="M581.63,751.92c-.95-.05-1.32.41-1.91-.49-1-1.52-3.53-5.41-4.05-6.79-.38-1.02-.65-1.94-.5-3.05,1.37-.3,1.47.7,2.05,1.5.8,1.1,5.13,8.13,4.41,8.83Z"/>
  <path class="st0" d="M693.91,877.49c.11.06.2.81.64,1.07,1.16.71,9.49,5.49,7.93,7.13-1.28-.43-3.15-1.47-4.27-2.19-.8-.52-6.96-5.42-6.06-6.2.16-.14,1.32-.04,1.77.19Z"/>
  <path class="st0" d="M1284.36,232.72c.4.54,2.54,1.65,1.33,2.87-1.86-.2-9.38-9.64-8.71-10.34,3.25,1.1,5.43,4.87,7.38,7.48Z"/>
  <path class="st0" d="M1286.02,823.66c.97,1.06-4.84,7.7-6,8.61-3.03,2.39-2.9.71-1.09-1.64,1.11-1.44,3.6-4.44,4.83-5.69.68-.69,1.13-1.51,2.27-1.28Z"/>
  <path class="st0" d="M581.63,306.02l-4.88,9c-.28.65-1.75,1.83-2.22,1.33-.81-.88,5.72-11.77,7.1-10.33Z"/>
  <path class="st0" d="M1346.77,315.71c-.61.75-1.93-1.19-2.28-1.57-.85-.94-5.44-7.46-4.82-8.11,2.45-.15,7.95,8.64,7.1,9.69Z"/>
  <path class="st0" d="M1347.42,741.59c.73.78-4.42,9.83-6.45,10.34.09-3.32,2.38-6.35,4.37-8.87.61-.77.74-1.76,2.08-1.47Z"/>
  <path class="st0" d="M1182.63,908.96c.74.59-6.02,5.17-6.53,5.42-1.21.59-2.42,1.14-3.81,1.03-.99-.78,8.9-7.6,10.34-6.45Z"/>
  <path class="st0" d="M608.38,790.45c1.04,1.21,6.6,6.89,3.94,8-.56.24-6.82-8.59-6.13-10.34,1.09.31,1.5,1.53,2.19,2.34Z"/>
  <path class="st0" d="M1311.5,263.1c1.82,1.99,3.75,3.64,3.6,6.73-2.33-1.68-6.07-6.17-7.09-8.73-1.3-3.26,3.14,1.61,3.49,2Z"/>
  <path class="st0" d="M613.94,260.14c.67.69-5.58,9.42-7.44,9.68-.4-1.72,6.09-11.06,7.44-9.68Z"/>
  <path class="st0" d="M643.66,225.89c.28,1.3-.28,1.73-.94,2.61-.87,1.17-3.44,4.45-4.32,5.37-.58.61-1.67,1.79-2.49,1.05-.69-.62,6.66-10.26,7.75-9.04Z"/>
  <path class="st0" d="M750.94,915.41c-3.63.08-6.2-2.38-9.07-4.18-4.47-5.34,5.68,1.16,7.33,2.36.65.47,1.56.96,1.73,1.82Z"/>
  <path class="st0" d="M1315.1,788.76c-.16,4.16-3.37,7.36-6.45,9.69.31-2.49,2.78-6.18,4.37-8.22.61-.79.75-1.75,2.08-1.47Z"/>
  <path class="st0" d="M1181.33,148.98c-.72.64-5.07-2.02-5.96-2.62-.79-.52-3.2-2.15-3.08-3.19,1.64-.8,10.49,4.52,9.04,5.81Z"/>
  <path class="st0" d="M749,143.17c.32,3.53-12.51,8.16-6.93,3.73,1.01-.8,5.96-4.58,6.93-3.73Z"/>
  <path class="st0" d="M1227.86,878.59c.66.59-1.46,2.48-1.91,2.95l-6.49,4.15c-1.11-1.2,4.78-5.5,5.8-6.15.59-.38,1.87-1.61,2.6-.95Z"/>
  <path class="st0" d="M942.23,951.61c.99-.63,2.96-3.71,4.53-2.9-.29,1.67-2.08,3.23-3.29,4.43-.37.38-1.11.28-1.24.41l.51-1.63-.51-.31Z"/>
  <path class="st0" d="M980.36,106.33l-5.18,5.16c-1.5,0,.06-2.15.38-2.54,1.23-1.5,1.36-1.29,2.87-1.98.67-.31,1.45-.41,1.94-.65Z"/>
  <path class="st0" d="M537.68,510.23c.07.11.79.78,1.5,1.7.44.57,4.08,3.11.46,3.46-.31-1.64-1.57-2.11-1.95-3.87-.08-.38.06-.88,0-1.29Z"/>
  <path class="st0" d="M973.25,957.43c-1.36.28-2.86-2.67-2.26-3.88,1.81.16,2.85,3.07,3.55,3.88h-1.29Z"/>
  <path class="st0" d="M922.2,110.21c-2.64.06-6.33.41-9.05.65,2.5-.72,6.74-2.08,9.05-.65Z"/>
  <path class="st0" d="M534.45,538.66c.09-.06.04-1.58.97-1.94,3.12-1.21.92,2.89-1.62,3.23.27-.39.4-.89.65-1.29Z"/>
  <path class="st0" d="M1443.06,537.37l.65-1.94c0,.05.62.39.54.89-.13.71-1.09.88-1.18,1.05Z"/>
  <path class="st1" d="M1386.84,517.99c.7.7-.58,1.99-1.29,1.29s.58-1.99,1.29-1.29Z"/>
  <path class="st0" d="M531.87,541.9l1.29-1.29c-.5.56-.85.84-1.29,1.29Z"/>
  <path class="st0" d="M1228.83,877.94c.42.22.42.43,0,.65v-.65Z"/>
  <path class="st1" d="M1404.05,451.66c7.14,7.15,4.77,22.74,1.82,31.4-4.38,12.89-14.42,21.86-23.89,31.03,2.24-5.59,6.02-10.63,8.4-16.15,3.2-7.44,5.29-15.33,4.16-23.52-.92-6.67-6.67-11.29-4.17-19.79,1.63-5.53,9.61-7.05,13.69-2.97Z"/>
  <path class="st1" d="M975.51,949.02c.42.22.42.43,0,.65v-.65Z"/>
  <path class="st0" d="M1347.1,316.36c.42.22.42.43,0,.65v-.65Z"/>
  <path class="st0" d="M1182.36,202.89c25.02,19.9,50.41,44.89,51.41,79.13,11.43,2.19,21.59,4.61,31.79,10.54,39.84,23.13,71.75,95.69,83.61,138.69,27.56,99.9,11.32,223.61-52.82,306.61-15.39,19.91-36.38,36.97-62.67,38.61-.03,31.03-21.53,54.69-43.71,73.55-99.75,84.83-256.72,101.81-375.85,50.36-36.35-15.7-80.22-42.93-105.79-73.37-12.46-14.83-19.46-30.92-20.78-50.47-35.75-2.58-58.86-31.43-76.44-59.59-55.27-88.52-66.45-205.69-33.01-304.29,14.31-42.18,50-116.94,97.38-128.15,4.31-1.02,8.5-.82,12.5-2.36.76-7.51,1.91-15.64,4.35-22.8,10.12-29.78,48.88-59.96,74.84-76.38,123.81-78.33,300.07-71.66,415.2,19.93ZM1139.73,178.33c-125.54-70.71-304.54-60.48-412.06,38.82-19.9,18.38-36.67,39.53-36.46,68.23-9.7,1.76-18.58,3.18-27.64,7.25-34.36,15.43-64.53,74.14-77.44,108.03-38.32,100.62-29.15,220.37,26.6,312.58,15.69,25.95,37.26,53.43,68.9,59.2,1.98.36,8.5-.13,9.58,1.41.36.51.75,10.3,1.09,12.48,4.25,26.82,24.16,46.71,44.13,63.15,123.16,101.38,319.96,101.78,444.52,2.83,27.91-22.17,44.3-37.45,48.94-74.79.82-6.61,3.82-4.13,8.58-4.99,28.04-5.05,45.65-22.88,61.39-45.23,76.55-108.73,78.03-278.05,4.53-388.91-17.32-26.12-39.77-50.96-73.33-52.68-1.07-.77-1.58-12.86-2.05-15.39-7.16-38.31-57.49-74.08-89.27-91.98Z"/>
  <path class="st1" d="M1139.73,178.33c31.78,17.9,82.11,53.68,89.27,91.98.47,2.53.99,14.63,2.05,15.39,33.56,1.72,56.02,26.56,73.33,52.68,73.5,110.86,72.02,280.19-4.53,388.91-15.74,22.35-33.35,40.18-61.39,45.23-4.76.86-7.76-1.62-8.58,4.99-4.63,37.34-21.02,52.61-48.94,74.79-124.57,98.96-321.36,98.56-444.52-2.83-19.97-16.44-39.88-36.33-44.13-63.15-.35-2.18-.73-11.97-1.09-12.48-1.08-1.54-7.6-1.05-9.58-1.41-31.64-5.77-53.2-33.25-68.9-59.2-55.75-92.21-64.92-211.95-26.6-312.58,12.91-33.9,43.08-92.61,77.44-108.03,9.06-4.07,17.95-5.49,27.64-7.25-.21-28.7,16.56-49.85,36.46-68.23,107.52-99.31,286.52-109.53,412.06-38.82ZM864.48,208.64c-5.16-3.94-5.45,1.47-4.81,5.79,28.03,98.18,56.59,196.18,85.13,294.21,11.83,34.22,52.85,39.55,64.18,74.76,8.65,26.88.17,44.33.46,69.98.36,31.37,32.43,45.57,59.45,35.54,19.92-7.4,18.32-23.96,32.83-35.82,8.67-7.08,39.82-19.55,50.85-20.72,4.59-.49,7.21,1.05,11.01,1.3,11.56.77,13.21-15.45.6-16.17-7.65-.44-17.49,7.21-24.19,10.69-12.27,6.36-26.14,12.08-40.32,10.57-10.48-1.11-15.24-10.93-22.89-16.68-4.98-3.75-12.82-8.25-18.72-10.2-6.27-2.07-13.66-2.05-19.55-4.37-12.08-4.74-18.62-18.19-22.63-29.71-16.2-46.47-24.84-95.57-43.6-141.22l-107.79-227.93ZM1159.77,268.14c-15.33-10.2-34.96-24.67-50.88-32.82-22.62-11.57-31.38,9.86-40.1,26.32-23.32,44.01-45.94,88.82-68.98,132.78l-20.63,39.39.14,2.12c6.98,18.35,12.11,37.37,19.4,55.6,20.83,5.3,41.79,10,62.27,16.57,8.42,2.53,17.39-5.12,7.99-11.22l-62.31-31.86c-2.04-1.4.23-4.13,2.12-3.66,17.48,7.51,34.47,16.31,52.01,23.67,3.23,1.35,15.87,7.27,18.33,5.71.24-.15.69-1.74.67-2.17-.13-2.35-2.58-3.45-4.37-4.6-17.31-11.17-39.53-19.23-57.52-29.73-3.98-2.32-8.5-6.11-.56-5.26l62.34,28.13c6.85,2.32,10.35-.89,3.61-5.54-10.23-7.06-26.43-14.27-37.9-20.27-4.17-2.18-23.38-10.67-25.03-13.1-2.87-4.24,3.72-2.3,5.98-1.45,20.66,7.79,41.11,20,61.91,27.94,4.17,1.48,7.16-2.4,3.47-5.43-19.27-11.44-41.01-20.27-60.25-31.52-1.18-.69-5.61-2.93-5.25-4.42.42-1.77,3.36-1.24,4.64-.8,19.81,6.69,40.9,20.15,60.95,27.61,1.93.72,6.41,2.87,7.79.64,1.56-2.52-1.43-4.32-2.99-5.44-7.92-5.67-21.88-12.09-30.95-16.88-9.53-5.03-21.09-9.65-30.08-15.16-3.75-2.3-2.14-5.55.34-4.93,13.89,6.31,27.61,13.1,41.57,19.24,7.31,3.22,17.63,8.51,24.98,10.59,3.71,1.05,6.56-2.96,2.4-5.7-17.69-11.64-41.69-20.57-60.47-31.26-1.45-.83-5.21-2.4-4.6-4.42,1.07-1.49,3.07-1.15,4.55-.69,19.03,7.82,37.83,18.27,56.83,25.88,5.36,2.15,17.91,6.09,8.61-3.44-14.03-7.19-27.8-14.91-41.77-22.21-3.26-1.7-19.81-8.92-20.78-10.88-2.43-4.94,3.9-2.14,5.91-1.39,18.89,7.08,38.12,18.86,57.09,25.63,4.48,1.6,13.16,3.98,7.97-3.45-19.9-11.23-40.8-20.68-60.88-31.52-4.08-2.2-8.02-5.97-.06-5.1,20.31,7.32,41.76,21.46,62.03,27.79,7.81,2.44,10.07-.86,3.43-5.38-17.37-11.84-41.79-19.48-59.46-31-5.63-3.68-4.09-5.59,2.08-4.02,19.05,8.18,38.53,18.86,57.81,26.2,1.69.64,7.65,2.88,8.91,2.13,2.87-1.7-.12-5.69-2.5-6.6l-62.17-32c-1.28-1-1-2.53-.39-3.84l2.65.1,63.06,28.07c2.49.79,4.69,1.31,7.18.13.58-3.13-1.41-4.15-3.63-5.63-18.09-12.01-41.31-19.78-60.08-31.04-2.13-1.28-6.25-4.36-1.19-4.69,3.22-.21,24.08,10.5,28.84,12.58,10.7,4.69,22.13,10.05,32.91,14.27,4.2,1.65,11.85,5.16,8.56-2.92-21.11-11.57-42.51-22.63-64.1-33.31-2.61-1.9-1.39-5.17,2.55-3.84,8.73,2.94,19.78,9.5,28.61,13.39,10.16,4.48,23.71,11.38,33.87,14.6,6.82,2.16,9.6-1.61,4-5.29-11.94-7.84-29.69-15.66-42.81-22.46-4.86-2.52-16.68-7.02-20.06-10.32-3.7-3.61,2.1-3.28,4.89-2.3,19.96,6.99,40.71,20.27,60.92,27.62,5.51,2.08,9.39-.95,3.79-5.08-15.97-11.78-41.38-20.89-59.22-31.25-3.99-2.32-9.04-6.1-.41-5.4,9.38,4.68,18.9,9.27,28.48,13.52,9.88,4.39,22.99,11.12,32.9,14.28,7.25,2.31,11.18-.72,4.06-5.35-9.51-6.18-24.18-12.89-34.66-18.33-8.04-4.18-19.73-8.4-26.87-13.2-.81-.54-2.02-1.49-2.01-2.53,0-3.42,4.39-1.46,6.02-.83,17.53,6.84,35.32,16.67,52.82,24.08,2.89,1.22,9.83,4.65,12.56,4.22,3.87-.61,1.79-4.07-.13-5.83-18.47-10.75-38.1-19.45-56.95-29.47-3.1-1.65-13.64-7.26-3.94-7.05,22.33,10.21,44.59,20.67,67.57,29.4,6.58-1.35,6.14-8.6,1.52-12.54-4.39-3.74-13.77-8.94-18.95-12.39ZM942.46,551.19c1.52-1.2,8.88-5.21,8.72-6.92-.11-1.2-3.72-4.79-4.67-6.34-6.69-11.02-8.25-24.07-12.36-36.1-.74.61-1.28,1.29-1.75,2.13-13.66,24.64-13.43,56.95-24.76,82.52-12.19,27.5-29.68,18.09-50.51,29.62-11.25,6.23-23.01,17.1-23.5,30.77s2.75,29.61,14.3,37.46c21.03,14.28,55.87,8.92,65.7-16.25,5.62-14.38,1.31-29.7.16-44.44-2.51-32.23,3.28-52.34,28.66-72.45ZM647.39,518.12c-5.35.78-10.48,6.74-9.93,12.15,1.46,14.37,21.6,13.72,22.87.77.66-6.78-5.89-13.94-12.94-12.92ZM1271,518.12c-3.11.51-7.42,4.07-8.56,6.98-5.8,14.82,15.94,22.63,21.44,8.52,3.02-7.73-4.65-16.85-12.88-15.5ZM1002.72,754.77c-23.64-20.94-63.96-11.59-74.03,18.84-11.28,34.07,15.12,66.41,50.7,61.68,10.98-1.46,22.47-8.09,28.72-17.06-.13-.63-7.24-5.7-7.98-5.52-14.41,20.16-47.65,17.58-59.48-3.96-18.36-33.42,17.17-70.77,49.85-51.14,3.51,2.11,6.31,5.45,9.55,7.89,7.69-4.47,9.96-4.28,2.67-10.73ZM917.03,833.99c-2.55-6.31-5.17-12.65-7.94-18.88-9.53-21.43-19.78-45.16-30.37-65.91-.47-.93-1.44-3.35-2.01-3.8-1.4-1.1-8.9-1.26-9.92,1.18-7.76,16.72-14.91,33.72-22.52,50.51-4.71,10.38-12.12,22.96-15.79,33.32-.42,1.18-.75,2.31-.61,3.59h9.37c1.33,0,9.81-21.28,11.24-24.16l1.01-.45,45.8.15c1.49.51,9.68,20.23,10.77,23.32.19.44,1.33,1.14,1.61,1.14h9.37ZM774.85,784.88v-30.05c0-.32,1.07-1.06,1.61-.99l45.15.58c1.87-.62,1.32-8.96.09-8.96h-56.55v87.56c0,1.66,8.12.76,9.69.97v-40.07c.63.21,1.4-.65,1.62-.65h41.68v-8.4h-43.3ZM1035.93,754.51h49.44c1.45,0,1.45-9.05,0-9.05h-59.13v87.56c0,.07.9.97.97.97h58.81c1.63,0,.78-7.65.97-9.05h-50.41c.25-1.89-.64-3.65-.7-5.49-.04-1.21.67-2.38.64-3.3-.22-6.63-1.4-13.96-.62-20.64.08-.65.29-2.23,1-2.23h44.27v-8.4h-44.59l-.65-30.37ZM1168.41,745.46h-67.85c.19,1.4-.66,9.05.97,9.05h28.76v78.52c0,1.66,8.12.76,9.69.97v-79.49h28.43v-9.05Z"/>
  <path class="st1" d="M1073.03,675.29c-18.63,18.53-49.82,7.85-55.02-17.57-6.99-34.21,24.69-53.14,52.11-32.08,16.83,12.92,17.91,34.73,2.9,49.65Z"/>
  <path class="st1" d="M972.32,483.45c-14.91,17-40.2-9.1-25.34-24.04s39.82,7.53,25.34,24.04ZM965.26,471.22c4.51-4.31,6.08-11.1-.93-13.79-8.82-3.38-20.36,3.58-18.08,13.56,1.7,7.44,14.68,4.36,19.02.23Z"/>
  <path class="st1" d="M899.35,624.2c15.72,14.86,10.93,47.06-8.68,56.45-14.38,6.88-33.58,3.61-42.27-10.35-21.72-34.89,26.79-68.94,50.95-46.1Z"/>
  <polygon class="st1" points="853.05 801.04 871.47 757.73 873.14 758.67 891.82 801.04 853.05 801.04"/>
</svg>