<?xml version="1.0" encoding="UTF-8"?>
<svg id="_Слой_1" data-name="Слой 1" xmlns="http://www.w3.org/2000/svg" viewBox="0 0 739.34 749.42">
  <defs>
    <style>
      .cls-1 {
        fill: #c9a983;
      }

      .cls-2 {
        fill: #a98b69;
      }

      .cls-3 {
        fill: #697b4d;
      }

      .cls-4 {
        fill: #fefefe;
      }

      .cls-5 {
        fill: #332c23;
      }
    </style>
  </defs>
  <path class="cls-5" d="M44,295.16l40.9-12.6c6.61-116.24,80.06-216.17,188.85-256.65,25-9.3,51.12-13.44,76.49-20.51,32.96-9.19,65.26-5.8,97.76,3.76,47.76,14.05,101.67,62.24,146.42,11.41l11.57-19.92c3.34,58.04-35.26,110.08-81.07,141.41-48.82,33.39-107.85,44.15-166.27,36.44-43.71-5.77-84.49-23.09-126.99-33.58-41.16,29.84-71.01,74.16-90.65,120.72l231.35-68.73,263.61,112.28,3.03.46c1.63-53.08-11.7-104.28-36.01-150.99-1.49-1.08-8.35,7.1-9.97,8.51-25.4,22.17-56.72,38.41-88.5,49.5-5.1,1.78-24.28,8.6-28.19,8.73-3.58.12-10.37-5.26-14.32-5.76.14-1.53,1.52-1.53,2.55-1.93,7.91-3.09,17.62-4.98,25.96-8.04,86.25-31.61,160.4-106.58,147.48-205.01,2.08-1.66,3.98,5.85,4.57,7.95,6.37,22.74,6.22,50.89-.29,74.82-5.63,20.71-16.75,39.37-28.96,56.72,15.01,26.47,27.07,54.91,34,84.67,6.64,28.54,9.31,57.94,7.84,87.16,1.2,3.5,32.41,13.23,36.84,17.16v45c0,.3,1.39,1.4,1,2.49l-42.99-13c-20.5,104.21-106.15,189.58-207.79,216.72-163.01,43.53-334.13-71.29-355.22-237.72l-43,11.01v-62.5ZM584,48.66c2.64-3.77,6.71-7.12,7.51-11.98-26.23,21.48-63.58,18.52-94.27,9.24-15.29-4.62-27.44-11.87-41.99-17.01-32.06-11.33-77.84-15.31-109.52-6.02-32.68,9.58-52.4,30.85-59.73,63.77-.44,1.97-1.73,3.61-1.99,6.53-.09,1.08-.73,3.73.97,3.47l6.01-10.99c5.18-5.25,9.94-11.12,15.53-15.97,44.91-39.02,105.64-36.37,160.47-24.02l-9.54,1.03c-61.3-9.4-121.55,11.53-166.46,52.95,6.81-.85,13.67-2.28,20.5-2.98,64.52-6.68,132.67-5.77,197.95-10.05,1.16-.08,5.54-.72,5.54,1.03-60.25,14.79-122.3,19.42-183.99,25.02.81,2.08,5.18,1.76,7,1.99l64,17.99c-37.6-2.7-74.79-9.06-111.56-17.03-8.37,1.01-15.17,6.53-22.44,10.04-8.74,4.23-18.56,7.56-26,13.99,49.37,1.37,96.63,18.61,146,20.01,40.47,5.51,91.36-7.74,125.31-30.19.75-.49,5.05-2.77,4.17-3.83-17.54,6.9-36.64,10.7-55.47,10.53,6.31-2.9,13.38-3.81,19.95-6.05,45.38-15.42,75.08-42.94,102.04-81.46ZM292,37.67c-48.29,13.77-92.7,43.73-125,81.98,32.47-13.97,67.99-16.21,103-14.99-.31-24.24,7.32-47.86,21.99-67ZM234,122.67c-44.97-.78-84.46,23.49-106.17,62.32-15.35,27.47-23.05,60.47-25.82,91.67.43.46,11.34-2.6,12.07-3.67,2.05-3.02,5.65-16.16,7.75-21,19.25-44.38,50.74-85.6,89.86-114.14,7.28-5.31,15.11-9.79,22.32-15.17ZM370,250.66l38,14v-34c-13.12-3.38-24.72-12-38.04-14.57L63.42,306.58l-2.42,1.58v27.5c8.57-.84,16.74-4.77,25-7,94.78-25.59,189.44-51.62,284-78ZM676,343.66l-251-105v33l251,86v-14ZM408,297.66c-.06-3.17.82-13-1-14.5l-36.59-13.46c-3.1-.41-6.57.65-9.62,1.26-2.67.54-19.94,4.99-21.1,5.67-3.18,1.88-.69,11.33-.65,14.48,1.22,94.82-1.01,189.74-.05,284.55,15.77.52,31.72,1.83,47.55,1.04,4.75-.24,9.97-1.39,14.46-2.04,3.06-.44,7.23,1.47,7.05-3.45-1.45-91.13,1.78-182.45-.05-273.55ZM322,331.66c-.04-16.65.46-33.4-.51-50.01l-171.9,47.9c-1.01,24.98-.65,50.11-.58,75.12-1.66,1.04-1,3.8-1.02,5.49-.11,10.24-1.8,41.89.47,49.56.66,2.23,4.93,7.16,6.59,9.41,8.79,11.93,19.37,22.3,29.96,32.54,3.85,3.72,6.87,8.64,11.99,11-.34-7.4,2.38-16.75,1.01-24l6.99-70.99c.21,4.47-.26,9.02.02,13.48,1.5,23.72,3.83,47.82,5.99,71.51.51,5.62.66,16.69,2.24,21.26,1.77,5.14,50.71,33.03,52.76,30.73.27-18.31-.35-36.69,0-55,.42-22.09,2.16-45.02,3-67.51.05-1.21-.75-3.72.99-3.48l11.01,103.99c-.5,5.21.4,18.98,1,24.52.14,1.27.34,3.38,1.23,4.25,2.13,2.09,31.32,9.76,35.77,10.23.78.08,2.94.44,3.02-.59-.19-79.8.19-159.62-.02-239.41ZM587,354.66c-.04-3.29.16-6.62-.1-9.9l-161.9-55.1v281l28.9-7.09c.9-10.3,2.24-20.6,3.1-30.91,1.25-15.1,1.56-30.39,3.01-45.49,1.67-17.51,4.79-34.94,6-52.5,2.29-.14,1.79-.36,2,1.47,1.43,12.16,1.7,26.2,1.99,38.52.45,18.81-.44,37.72-.04,56.54.17,8.09,2.71,17.16.04,25.45,1.3,1.19,26.68-11.63,30.02-13.47,4.75-2.62,24.12-13.62,24.96-18.04.88-4.63.51-13.78,1.02-19.48,1.99-22.32,4.22-44.66,6.01-67l1.98,7.51c1.12,15.81,1.84,31.69,3.01,47.49.54,7.29,1.44,14.7,2.01,22,1.75.46,2-.74,3-1.49,4.01-3.03,8.26-7.07,12-10.5,12.28-11.27,23.21-24.03,32.98-37.52-.34-37.15.52-74.35.02-111.48ZM132,334.66l-17.82,4.18c-4.83,25.03-4.99,49.13,6.96,72.18l10.86,20.64v-97ZM604,370.66c-.2,23.65.14,47.35.01,70.99l5.51-8.97c8.69-17.27,15.51-35.34,20.48-54.02.7-2.64,4.89-15.55,3.91-16.9-9.38-1.88-19.59-7.92-28.53-9.99-1.9-.44-1.22.02-1.38,1.38-.61,5.16.05,12.08,0,17.52Z"/>
  <path class="cls-5" d="M372.5,641.66c19.64,3.07,31.25,29.8,16.91,44.91-2.31,2.44-6.41,3.49-8.4,6.08,25.05,5.03,26.17,40.2,4.38,50.89-2.08,1.02-11.1,4.12-12.88,4.12h-58.5v-106h58.5ZM334,685.66h28.5c6.51,0,12.88-6.06,13.14-12.65.22-5.55-4.24-13.35-10.14-13.35h-31.5v26ZM334,729.66c7.59.85,15.16-.75,22.48-1.08,5.57-.25,9.21,1.69,15.53-.4,10.87-3.6,11.21-18.21,1.95-23.98-.98-.61-5.75-2.54-6.46-2.54h-33.5v28Z"/>
  <path class="cls-5" d="M641,641.66c23.16,1.2,48.21-5.45,69.69,5.81,40.94,21.48,37.32,81.5-6.44,96.93-2.6.92-9.47,3.26-11.74,3.26h-50c-.11,0-1.5-1.39-1.5-1.5v-104.5ZM661,728.66h30.5c4.94,0,17.22-8.43,20.47-12.53,12.37-15.58,7.9-41.54-9.67-51.28-1.91-1.06-9.18-4.19-10.81-4.19h-30.5v68Z"/>
  <path class="cls-5" d="M433,640.66v69.5c0,.47,2.32,7.27,2.79,8.21,5.96,11.79,24.19,16.13,35.14,8.73,3.05-2.06,10.07-10.42,10.07-13.93v-71c0-.11,1.39-1.5,1.5-1.5h18c.11,0,1.5,1.39,1.5,1.5v68c0,32.72-42.37,49.2-68.91,32.91-7.71-4.73-20.09-19.75-20.09-28.91v-72.5c.98.32,2.17-1,2.5-1h17.5Z"/>
  <path class="cls-5" d="M234.78,640.94c83.89-10.04,83.8,115.03,3.74,107.7-63.97-5.85-64.4-100.44-3.74-107.7ZM214.35,664.01c-22.75,21.75-13.06,61.68,16.87,70.93,44.48,13.75,75.01-42.34,40.31-72.31-16.33-14.09-41.43-13.68-57.18,1.38Z"/>
  <path class="cls-5" d="M580,729.66c1.08.37,2.19-1,2.5-1h47c.11,0,1.5,1.39,1.5,1.5v17.5h-72v-107h19.5c.11,0,1.5,1.39,1.5,1.5v87.5Z"/>
  <path class="cls-5" d="M73,641.66v11H12v36l50.39-.88c7.34,0,3.98,5.32,4.61,10.88H12v37h61v11H0v-105h73Z"/>
  <path class="cls-5" d="M182.86,726.79c1.95,3.4-11.13,12.62-13.94,14.29-44.69,26.57-97.97-16.58-79.69-66.69,11.03-30.26,47.44-42.27,75.65-28.1,3.22,1.62,17.89,11.22,17.04,14.77-.18.76-7.46,5.61-8.44,5.62-.82,0-10.57-8.15-13.44-9.55-23-11.26-50.62-1.84-59.53,22.55-14.28,39.11,28.96,72.42,63.41,50.41,2.45-1.56,9.31-8.43,10.56-8.43.51,0,8.13,4.72,8.37,5.14Z"/>
  <path class="cls-5" d="M541,747.66h-21v-107h19.5c.11,0,1.5,1.39,1.5,1.5v105.5Z"/>
  <path class="cls-4" d="M408,297.66c1.83,91.1-1.41,182.42.05,273.55.18,4.92-3.99,3.01-7.05,3.45l-8.01-126.99-21.99,123.99v-285l37,11Z"/>
  <path class="cls-1" d="M457,532.66c-.86,10.31-2.2,20.6-3.1,30.91l-28.9,7.09v-281l161.9,55.1c.26,3.28.06,6.61.1,9.9l-155-50v193l11.02-63.5,1.97-1.5,12.01,99.99Z"/>
  <path class="cls-1" d="M86,328.66c-1.63-6.11-1.24-12.85-.57-19.07,67.02-16.18,134.56-31.38,201.77-47.23,27.89-6.57,55.74-14.28,83.79-19.71l-1,8c-94.56,26.38-189.22,52.41-284,78Z"/>
  <path class="cls-1" d="M470,474.66l5.99,39.99,37-74.99,8.02,73.99,4.99-8c-.51,5.7-.15,14.85-1.02,19.48-.84,4.42-20.21,15.43-24.96,18.04-3.34,1.84-28.72,14.66-30.02,13.47,2.66-8.29.13-17.36-.04-25.45-.4-18.82.49-37.73.04-56.54Z"/>
  <path class="cls-2" d="M211,502.66l4.99,5.99,10.02-69.99,35,75.99c1.36,1.45,1.83-.07,2-1.48.47-3.99.21-7.69,1.03-12,.4-2.1-1.1-3.5,1.97-1.52-.35,18.3.27,36.69,0,55-2.04,2.3-50.99-25.59-52.76-30.73-1.58-4.58-1.73-15.64-2.24-21.26Z"/>
  <path class="cls-4" d="M149,404.66c-.07-25.01-.43-50.14.58-75.12l171.9-47.9c.97,16.61.47,33.37.51,50.01l-11.01,100.99-1.99-133-154.04,33.46-5,81,.03,20.54c-1.74.23-.94-2.27-.99-3.48-.36-8.78.02-17.72,0-26.51Z"/>
  <path class="cls-2" d="M281,532.66c2.94-30.36,9.46-61.05,12.99-91.51.28-2.42-1.46-8.34,2.01-7.49l23.01,138c-4.44-.47-33.64-8.14-35.77-10.23-.89-.87-1.09-2.98-1.23-4.25-.6-5.53-1.5-19.31-1-24.52Z"/>
  <path class="cls-1" d="M604,370.66c.05-5.44-.61-12.36,0-17.52.16-1.35-.52-1.82,1.38-1.38,8.94,2.07,19.16,8.12,28.53,9.99.97,1.35-3.21,14.27-3.91,16.9l-26-8Z"/>
  <path class="cls-2" d="M198,488.66c1.37,7.25-1.35,16.6-1.01,24-5.12-2.36-8.14-7.28-11.99-11l-1.99-37c3.45,5.04,14,18.76,14.99,24Z"/>
  <path class="cls-1" d="M554,503.66c-3.74,3.43-7.98,7.47-12,10.5-1,.76-1.25,1.95-3,1.49-.56-7.3-1.47-14.71-2.01-22l2.81-2.64,12.18-20.35c.03,11.01-.45,22.2,2.01,32.99Z"/>
  <path class="cls-5" d="M278,313.66v53l-50,1v-37.5l50-16.5ZM240,336.66v20l28.01-.99c-.04-9.36.42-18.74-1.01-28l-26.99,9Z"/>
  <path class="cls-5" d="M213,333.66v38.5l-43,8.5v-36l43-11ZM203,346.66c-3.73,1.05-21.16,4.72-22.52,6.98-1.55,2.57.12,10.59-.49,14.02,2.92.09,23-2.53,23-4.5v-16.5Z"/>
  <path class="cls-5" d="M504,372.66l-44.5-3c-.82.03-2.5-.94-2.5-1.5v-44.5l47.96,14.04c-1.23,9.98,1.81,24.6.04,33.96l-1,1ZM468,337.66v21c8.56,1.43,17.33,2.16,26.01,2.01-.61-3.43,1.06-11.45-.49-14.02-1.32-2.2-21.65-7.37-25.52-8.98Z"/>
  <path class="cls-5" d="M524,384.66v-39l42,11.5v33c0,.36,2.06,2.12-1.39,2.42l-40.61-7.92ZM555,364.66l-20-5v16l20,4v-15Z"/>
  <path class="cls-3" d="M504,372.66l1-1c-.14.75-.24.86-1,1Z"/>
</svg>