<?xml version="1.0" encoding="UTF-8"?>
<svg id="_Слой_1" data-name="Слой 1" xmlns="http://www.w3.org/2000/svg" viewBox="0 0 1024 1024">
  <defs>
    <style>
      .cls-1 {
        fill: #0d2e27;
      }

      .cls-2 {
        fill: #57a9a0;
      }

      .cls-3 {
        fill: #fcfdfd;
      }
    </style>
  </defs>
  <path class="cls-3" d="M1024,0v1024H0V0h1024ZM505.8,262.3c-40.85,3.54-60.37,45.98-21.72,70.12,41.46,25.9,100.64-19.39,67.89-54.89-11.44-12.4-29.87-16.64-46.17-15.23ZM567.59,275.04c-3.57.99,1.46,10.83,2.11,13.76,6.89,31.14-21.32,58.98-51.17,61.24-33.38,2.52-70.96-22.95-64.43-59.44,1.87-10.48,10.69-19.53-8.78-11.78-39.33,15.66-53.51,58.24-12.62,82.99,40.81,24.7,113.37,25.34,154.98,2.37,39.86-22.01,36.95-60.63-1.65-81.69-2.69-1.47-16.52-7.97-18.42-7.44ZM422.99,278.01c-23.15.46-44.83,19.48-49.53,41.96-.67,3.22-3.18,10.46,2.08,8.09,2.67-1.2,22.1-11.08,22.93-12.07,1.18-1.41,4.91-12.3,7.1-15.9,1.42-2.33,3.18-4.99,4.91-7.09s14.64-12.93,12.51-14.98ZM651.99,328.99c-1.07-27.4-24.52-50.73-51.99-50.99-1.39,1.22,11.22,12.45,12.51,13.98,1.56,1.85,3.38,4.27,4.71,6.29,2.7,4.06,7.42,16.73,8.78,18.22.97,1.07,12.25,5.55,15.02,6.98,3.67,1.91,6.7,5.59,10.98,5.51ZM397.99,327c-32.6,12.01-57.31,44.43-58.98,79.5-.89,18.6,3.37,7.99,9.46,2.46,21.24-19.28,66.3-18.51,89.05-2l12.96,14.02c4.27-.93-.14-19.82-1.47-23.51-9.39-26.15-37.07-31.62-47.52-55.48-1.95-4.44-3.39-10.16-3.51-14.99ZM685,418v-18.5c0-4.64-4.79-18.35-6.83-23.17-9.58-22.72-29.31-40.53-52.17-49.32-.71,35.29-41.6,41.08-51.28,71.22-2.74,8.53-2.59,14.56-1.73,23.28,2.09,2.01,2.2-1.14,3.34-2.62,16-20.78,38.51-25.82,64.21-23.91,20.97,1.56,27.87,7.53,41.48,21.52.96.98,1.3,1.88,2.98,1.52ZM503,390.01c-17.4,0-34.12-4.68-50.99-8,2.12,4.95,5.1,9.55,6.75,14.74,5.98,18.8-.94,38.99.25,58.25,2.34.65,1.69-.61,2.28-1.28,16.27-18.25,31.55-41.53,41.71-63.71ZM570.99,382c-18.06,5.9-37.08,7.63-56.01,8.48-10.87,22.2-25.02,42.45-40.02,61.98-2.72,3.54-11.99,12.79-13.25,15.82-2.06,4.96,5.53,28.41,8.1,34.38,2.71,6.28,14.76,25.44,19.82,29.18,9.77,7.22,26.25,7.68,37.33,3.63,8.52-3.11,14.86-11.73,19.85-19.15,14.38-21.38,19.2-52.04,17.17-77.33-14.8,5.74-31.63,8.11-44-3.99,10.96.87,21.85,1.81,32.37-2.14,15.28-5.74,9.57-12.41,10.59-25.41.77-9.79,5.27-16.48,8.03-25.46ZM674.93,426.92c1.15-1.62-2.79-6.97-3.96-8.39-11.4-13.87-35.9-15.8-52.46-13.51-54.94,7.58-38.49,59.8-53.75,98.25-7.53,18.97-31.41,37.24-23.95,57.42,8.77,23.73,45.3,7.26,59.52-2.85,52.16-37.09,17.63-95.94,67.37-127.63,1.56-.99,7-2.96,7.23-3.28ZM381.79,405.29c-7.82.8-32.76,9.17-31.87,19.18.2,2.22,13.73,10.1,16.54,12.55,34.08,29.68,10.75,80.21,50.52,115.48,14.26,12.66,58.03,35.28,66.74,6.71,5.96-19.57-13.07-32.87-21.11-48.33-12.07-23.19-9.5-45.05-15.07-68.93-7.69-32.97-34.97-39.8-65.74-36.67ZM381.99,510c-2.59-19.51-2.83-40.23-14.56-56.93-2.21-3.14-13.34-15.82-17.33-12.97-6.22,17.74.75,39.7,12.39,53.92,1.55,1.89,17.9,17.81,19.51,15.98ZM642,509.99c1.42,1.36,14.78-10.39,16.39-12.1,12.35-13.11,21.99-35.97,17.15-53.94-2.19-8.12-9.91-1.24-13.54,2.55-15.77,16.49-16.64,42.24-20,63.49ZM505.73,546.32c-3.93-.88-8.24-1.09-12.21-2.34-.99.06-.64,1.32-.03,2.03.79.93,17.43,7.12,19,7.06,2.89-.12,7.32-3.38,10.54-4.55,1.63-.59,10.98-1.09,7.97-4.52-.82-.94-18.4,5.4-24.3,3.97-.7-.17-.73-1.6-.96-1.65ZM579.78,614.28c-49.11,6.29-43.55,88.55,12.61,81.61,48.81-6.03,43.36-88.78-12.61-81.61ZM210,616.5v77c0,2.49,8,2.08,8-2v-54.5c10.7,14.53,18.24,31.44,27.53,46.97,1.64,2.66,6.44,3.18,8.36.43l28.1-49.39v58.5c0,1.77,7,3.16,7.97-2.03l.09-71.03c-.12-6.31-4.69-7.37-8.49-2.38-9.39,12.31-19.05,35.26-27.39,49.61-.55.95-4.39,7.85-5.16,7.32l-32.5-59c-1.38-1.73-5.94-1.36-6.51.51ZM340,623h44.5c1.89,0,5.38-6.79-2.07-7.93-9.01-1.39-34.32-.91-43.98-.11-5.59.46-6.03.96-6.5,6.5-1.85,22.11,1.5,46.71,0,69.09-.39,1.27,1.74,4.45,2.55,4.45h51c2.49,0,2.08-8-2-8h-43.5v-28h36.5c4.09,0,4.07-8,1-8h-37.5v-28ZM427,616.5v77c0,2.63,8,2.63,8,0v-56.5l28.49,49.01c1.48,1.56,3.76,1.28,5.5.48,2.75-1.27,21.31-37.25,24.84-43.16,1.43-2.4,2.94-5.72,5.17-7.33v57.5c0,3.37,8,2.3,8,0v-77c0-2.53-7.64-1.83-8.43,1.57l-26.39,48.61-5.66,8.33-33.5-59.51c-1.52-.96-5.44-.83-6.01,1.01ZM665,617.5v76c0,2.63,8,2.63,8,0v-30.5c4.4.65,17.78-.07,21.01,1.49,3.47,1.69,16.41,25.2,20.57,29.43,1.82,2.87,7.15,2.09,7.48-1.44.46-4.87-20.34-29.21-19.05-30.47,26.33-6.44,22.64-44.3-4.51-47-4.1-.41-29.25-.53-31.48.51-.46.22-1.92,1.65-2.02,1.98ZM783.99,653l-26.49-36.99c-2.16-2.38-7.54-.76-7.5,2.47l28.55,41.47c-.02,5.07,1.3,10.68,1.5,15.5.17,4.05-2.49,19.43,2.59,20.39.83.16,2.85-.73,3.38-1.34,2.92-3.32-.49-27.56,1.43-33.57,6.68-12.68,21.26-26.4,27.41-38.58,2.95-5.83.42-9.55-5.57-6.06l-25.3,36.69ZM346.01,753.99l-10.51-32c-.47-1.15-3.19-1.31-3.5-.99-2.39,2.45,10.87,33.4,11.7,38.76.25,2,4.49,1.74,5.4.61,2.57-3.18,6.28-21.29,8.86-26.91.45-.99.61-2.35,2.03-2.46l8.9,29.4,4.97.45c1.07-4.95,13.91-36.86,12.66-38.86-.9-1.44-3.02-1.5-4.01.02l-11.01,31c-2.67-3.62-9.1-31.01-10.52-32-.64-.45-2.85.11-3.58.89l-11.39,32.09ZM422,725h22.5c1.72,0,1.72-4,0-4h-25c-.56,0-1.53,1.68-1.5,2.5.64,9.61-.68,19.45-.44,29,.05,1.86.27,9.5,1.94,9.5h25c1.06,0,1.9-2.84,1.5-4h-24v-14h19.5c1.06,0,1.9-2.84,1.5-4h-21v-15ZM494.74,722.26c-1.71-1.38-4.39-1.38-5.8.45l-14.76,35.02c1.9,12.02,5.69-4.11,7.29-5.76,1.18-1.21,18.56-1.56,20.86-1.01,1.41.34,4.17,13.51,7.67,10.03,1.59-1.58-13.58-34.07-15.25-38.73ZM553.99,755l-14.1-32.39c-1.25-2.82-5.63-1.8-4.5,1.43,2.85,4.19,13.32,36.53,15.27,37,1.1.27,4.78.33,5.46-.63.86-6.33,15.87-33.92,14.85-37.82-.2-.76-1.48-1.78-2.45-1.58-2.21.45-13.49,29.42-14.53,33.99ZM630,725c.4-1.16-.44-4-1.5-4h-25c-.11,0-1.5,1.39-1.5,1.5v38.5c.98-.32,2.17,1,2.5,1h25.5c.2,0,.2-4,0-4h-24v-14h18.5c1.86,0,3.18-2.1,2.5-4h-21v-15h24ZM666,746c3.16.3,7.01-.72,9.98.52,3.54,1.48,9.11,13.44,11.99,15.01,1.41.77,2.6.14,2.98-1.12,1.05-3.5-7.1-10.51-8.93-13.92,8.46-3.76,13.5-12.95,7-21.02-.85-1.06-5.73-4.48-6.52-4.48h-20c-.11,0-1.5,1.39-1.5,1.5v38c0,2.1,5,.78,5,.5v-15Z"/>
  <path class="cls-2" d="M674.93,426.92c-.23.32-5.67,2.29-7.23,3.28-49.74,31.69-15.21,90.54-67.37,127.63-14.22,10.11-50.74,26.59-59.52,2.85-7.46-20.18,16.42-38.45,23.95-57.42,15.26-38.45-1.19-90.67,53.75-98.25,16.56-2.29,41.07-.35,52.46,13.51,1.17,1.42,5.1,6.78,3.96,8.39Z"/>
  <path class="cls-2" d="M381.79,405.29c30.77-3.13,58.05,3.7,65.74,36.67,5.57,23.87,3.01,45.73,15.07,68.93,8.04,15.45,27.07,28.76,21.11,48.33-8.7,28.58-52.47,5.95-66.74-6.71-39.76-35.28-16.44-85.8-50.52-115.48-2.81-2.45-16.35-10.34-16.54-12.55-.89-10.01,24.04-18.39,31.87-19.18Z"/>
  <path class="cls-1" d="M567.59,275.04c1.91-.53,15.74,5.98,18.42,7.44,38.61,21.06,41.51,59.68,1.65,81.69-41.61,22.97-114.16,22.34-154.98-2.37-40.89-24.75-26.7-67.33,12.62-82.99,19.47-7.75,10.66,1.3,8.78,11.78-6.52,36.49,31.05,61.96,64.43,59.44,29.85-2.25,58.06-30.1,51.17-61.24-.65-2.93-5.68-12.77-2.11-13.76Z"/>
  <path class="cls-2" d="M570.99,382c-2.76,8.98-7.26,15.67-8.03,25.46-1.02,12.99,4.69,19.66-10.59,25.41-10.52,3.95-21.41,3.01-32.37,2.14,12.36,12.09,29.19,9.73,44,3.99,2.04,25.29-2.79,55.96-17.17,77.33-4.99,7.42-11.33,16.03-19.85,19.15-11.08,4.05-27.56,3.6-37.33-3.63-5.06-3.74-17.11-22.9-19.82-29.18s-10.17-29.42-8.1-34.38c1.26-3.03,10.53-12.27,13.25-15.82,15-19.54,29.14-39.79,40.02-61.98,18.93-.85,37.95-2.58,56.01-8.48ZM523.99,483.01c-1.72-2.27-8.97.95-11.49.98-3.04.03-11.54-3.96-11.54.52,0,3.71,9.58,5.69,12.5,5.54,2.49-.13,12.66-4.22,10.53-7.03ZM543.95,499.05c-.63-.74-16.5-5.74-18.56-5.94-6.47-.65-11.7,2.95-14.75,2.64-1.65-.17-3.46-2.11-5.37-2.52-5.55-1.19-12.12,1.19-17.26,3.29-1.59.65-8.44,3.04-7.99,4.95.12.53,5.93,7.14,6.97,8.05,12.19,10.69,31.91,12.3,45.53,3.52,2.53-1.63,14-10.97,11.42-13.97Z"/>
  <path class="cls-1" d="M505.8,262.3c16.3-1.41,34.73,2.83,46.17,15.23,32.75,35.5-26.43,80.79-67.89,54.89-38.66-24.14-19.13-66.58,21.72-70.12Z"/>
  <path class="cls-1" d="M685,418c-1.68.36-2.02-.53-2.98-1.52-13.61-13.99-20.51-19.96-41.48-21.52-25.69-1.91-48.21,3.13-64.21,23.91-1.14,1.48-1.24,4.64-3.34,2.62-.87-8.72-1.02-14.74,1.73-23.28,9.68-30.13,50.57-35.92,51.28-71.22,22.86,8.79,42.58,26.61,52.17,49.32,2.03,4.82,6.83,18.53,6.83,23.17v18.5Z"/>
  <path class="cls-1" d="M397.99,327c.11,4.84,1.56,10.55,3.51,14.99,10.45,23.86,38.13,29.33,47.52,55.48,1.33,3.7,5.74,22.58,1.47,23.51l-12.96-14.02c-22.76-16.51-67.81-17.29-89.05,2-6.09,5.53-10.35,16.14-9.46-2.46,1.68-35.07,26.38-67.49,58.98-79.5Z"/>
  <path class="cls-1" d="M427,616.5c.57-1.84,4.49-1.96,6.01-1.01l33.5,59.51,5.66-8.33,26.39-48.61c.79-3.39,8.43-4.1,8.43-1.57v77c0,2.3-8,3.37-8,0v-57.5c-2.24,1.61-3.74,4.92-5.17,7.33-3.53,5.91-22.09,41.89-24.84,43.16-1.74.8-4.02,1.08-5.5-.48l-28.49-49.01v56.5c0,2.63-8,2.63-8,0v-77Z"/>
  <path class="cls-1" d="M210,616.5c.58-1.87,5.14-2.24,6.51-.51l32.5,59c.77.53,4.61-6.38,5.16-7.32,8.34-14.35,18.01-37.3,27.39-49.61,3.81-4.99,8.38-3.93,8.49,2.38l-.09,71.03c-.97,5.18-7.97,3.8-7.97,2.03v-58.5l-28.1,49.39c-1.92,2.75-6.72,2.23-8.36-.43-9.29-15.52-16.83-32.43-27.53-46.97v54.5c0,4.08-8,4.49-8,2v-77Z"/>
  <path class="cls-1" d="M579.78,614.28c55.96-7.17,61.41,75.57,12.61,81.61-56.15,6.94-61.71-75.31-12.61-81.61ZM579.74,622.24c-33.74,5.3-34.41,60.47.02,65.5,51.2,7.49,49.96-73.36-.02-65.5Z"/>
  <path class="cls-1" d="M665,617.5c.09-.33,1.55-1.77,2.02-1.98,2.22-1.04,27.37-.91,31.48-.51,27.15,2.7,30.84,40.56,4.51,47-1.29,1.26,19.51,25.6,19.05,30.47-.34,3.53-5.67,4.31-7.48,1.44-4.15-4.22-17.09-27.74-20.57-29.43-3.22-1.57-16.61-.85-21.01-1.49v30.5c0,2.63-8,2.63-8,0v-76ZM673,656h24.5c.35,0,5.47-1.47,6.21-1.79,10.74-4.63,12.87-21.35,2.63-28.05-.87-.57-6.4-3.16-6.84-3.16h-26.5v33Z"/>
  <path class="cls-2" d="M503,390.01c-10.16,22.18-25.44,45.46-41.71,63.71-.59.66.06,1.93-2.28,1.28-1.19-19.26,5.74-39.46-.25-58.25-1.65-5.19-4.63-9.78-6.75-14.74,16.87,3.32,33.59,8,50.99,8Z"/>
  <path class="cls-1" d="M340,623v28h37.5c3.07,0,3.09,8-1,8h-36.5v28h43.5c4.08,0,4.49,8,2,8h-51c-.81,0-2.94-3.18-2.55-4.45,1.51-22.39-1.84-46.99,0-69.09.46-5.54.91-6.03,6.5-6.5,9.65-.8,34.97-1.28,43.98.11,7.44,1.15,3.95,7.93,2.07,7.93h-44.5Z"/>
  <path class="cls-2" d="M381.99,510c-1.61,1.82-17.96-14.09-19.51-15.98-11.64-14.21-18.61-36.17-12.39-53.92,4-2.85,15.13,9.83,17.33,12.97,11.74,16.69,11.98,37.42,14.56,56.93Z"/>
  <path class="cls-2" d="M642,509.99c3.37-21.24,4.23-46.99,20-63.49,3.63-3.8,11.35-10.67,13.54-2.55,4.84,17.97-4.79,40.83-17.15,53.94-1.61,1.71-14.97,13.46-16.39,12.1Z"/>
  <path class="cls-1" d="M783.99,653l25.3-36.69c5.99-3.5,8.52.22,5.57,6.06-6.16,12.18-20.73,25.9-27.41,38.58-1.92,6.01,1.49,30.25-1.43,33.57-.53.61-2.55,1.5-3.38,1.34-5.08-.96-2.43-16.34-2.59-20.39-.2-4.82-1.52-10.43-1.5-15.5l-28.55-41.47c-.04-3.23,5.34-4.85,7.5-2.47l26.49,36.99Z"/>
  <path class="cls-1" d="M651.99,328.99c-4.27.08-7.31-3.6-10.98-5.51-2.76-1.44-14.04-5.92-15.02-6.98-1.36-1.49-6.08-14.16-8.78-18.22-1.34-2.02-3.15-4.43-4.71-6.29-1.29-1.53-13.89-12.76-12.51-13.98,27.47.26,50.92,23.58,51.99,50.99Z"/>
  <path class="cls-1" d="M422.99,278.01c2.14,2.05-10.77,12.87-12.51,14.98s-3.49,4.76-4.91,7.09c-2.19,3.6-5.92,14.49-7.1,15.9-.83.99-20.26,10.87-22.93,12.07-5.26,2.37-2.75-4.87-2.08-8.09,4.69-22.48,26.38-41.5,49.53-41.96Z"/>
  <path class="cls-1" d="M346.01,753.99l11.39-32.09c.72-.78,2.93-1.34,3.58-.89,1.42.98,7.85,28.38,10.52,32l11.01-31c.98-1.52,3.11-1.46,4.01-.02,1.25,2-11.59,33.91-12.66,38.86l-4.97-.45-8.9-29.4c-1.42.11-1.57,1.47-2.03,2.46-2.58,5.62-6.29,23.74-8.86,26.91-.91,1.12-5.15,1.39-5.4-.61-.84-5.36-14.09-36.31-11.7-38.76.31-.31,3.03-.16,3.5.99l10.51,32Z"/>
  <path class="cls-1" d="M666,746v15c0,.28-5,1.6-5-.5v-38c0-.11,1.39-1.5,1.5-1.5h20c.8,0,5.67,3.42,6.52,4.48,6.49,8.07,1.45,17.27-7,21.02,1.83,3.41,9.98,10.42,8.93,13.92-.38,1.25-1.57,1.89-2.98,1.12-2.88-1.58-8.45-13.53-11.99-15.01-2.97-1.24-6.82-.23-9.98-.52ZM665,725v16.5c0,2.15,11.3,1.71,13.41,1.41,13.44-1.92,8.68-17.91,3.09-17.91h-16.5Z"/>
  <path class="cls-1" d="M422,725v15h21c.4,1.16-.44,4-1.5,4h-19.5v14h24c.4,1.16-.44,4-1.5,4h-25c-1.67,0-1.89-7.64-1.94-9.5-.24-9.54,1.07-19.39.44-29-.03-.82.94-2.5,1.5-2.5h25c1.72,0,1.72,4,0,4h-22.5Z"/>
  <path class="cls-1" d="M630,725h-24v15h21c.68,1.9-.64,4-2.5,4h-18.5v14h24c.2,0,.2,4,0,4h-25.5c-.33,0-1.52-1.32-2.5-1v-38.5c0-.11,1.39-1.5,1.5-1.5h25c1.06,0,1.9,2.84,1.5,4Z"/>
  <path class="cls-1" d="M494.74,722.26c1.68,4.66,16.85,37.15,15.25,38.73-3.5,3.48-6.26-9.69-7.67-10.03-2.3-.55-19.67-.21-20.86,1.01-1.6,1.65-5.4,17.78-7.29,5.76l14.76-35.02c1.42-1.83,4.09-1.82,5.8-.45ZM484,748h17c-2.72-6.18-4.66-12.9-7.55-18.99-.49-1.03.02-2.62-1.93-2.02-1.07.33-7.07,18.24-7.51,21.01Z"/>
  <path class="cls-1" d="M553.99,755c1.03-4.58,12.31-33.54,14.53-33.99.97-.2,2.25.82,2.45,1.58,1.03,3.9-13.99,31.49-14.85,37.82-.68.96-4.36.9-5.46.63-1.95-.47-12.41-32.81-15.27-37-1.13-3.23,3.25-4.25,4.5-1.43l14.1,32.39Z"/>
  <path class="cls-2" d="M505.73,546.32c.24.05.26,1.48.96,1.65,5.9,1.42,23.48-4.91,24.3-3.97,3.01,3.44-6.34,3.94-7.97,4.52-3.23,1.17-7.66,4.42-10.54,4.55-1.57.07-18.21-6.12-19-7.06-.61-.72-.95-1.97.03-2.03,3.97,1.25,8.28,1.46,12.21,2.34Z"/>
  <path class="cls-3" d="M543.95,499.05c2.57,3-8.89,12.34-11.42,13.97-13.63,8.79-33.34,7.17-45.53-3.52-1.04-.91-6.85-7.52-6.97-8.05-.45-1.9,6.4-4.29,7.99-4.95,5.14-2.1,11.71-4.48,17.26-3.29,1.91.41,3.72,2.35,5.37,2.52,3.04.31,8.28-3.29,14.75-2.64,2.06.21,17.92,5.2,18.56,5.94ZM524,506h-24c.67,1.47,5.5,2.37,6.95,2.55,3.95.51,6.16.51,10.11,0,1.45-.19,6.28-1.08,6.95-2.55Z"/>
  <path class="cls-3" d="M523.99,483.01c2.14,2.82-8.04,6.91-10.53,7.03-2.93.15-12.51-1.83-12.5-5.54,0-4.47,8.51-.48,11.54-.52,2.52-.03,9.77-3.25,11.49-.98Z"/>
  <path class="cls-3" d="M579.74,622.24c49.98-7.86,51.22,72.99.02,65.5-34.43-5.03-33.76-60.2-.02-65.5Z"/>
  <path class="cls-3" d="M673,656v-33h26.5c.44,0,5.97,2.59,6.84,3.16,10.25,6.7,8.11,23.42-2.63,28.05-.74.32-5.86,1.79-6.21,1.79h-24.5Z"/>
  <path class="cls-3" d="M665,725h16.5c5.59,0,10.35,15.99-3.09,17.91-2.11.3-13.41.74-13.41-1.41v-16.5Z"/>
  <path class="cls-3" d="M484,748c.44-2.76,6.44-20.68,7.51-21.01,1.95-.6,1.45.99,1.93,2.02,2.89,6.09,4.84,12.81,7.55,18.99h-17Z"/>
  <path class="cls-2" d="M524,506c-.67,1.47-5.5,2.37-6.95,2.55-3.95.51-6.16.51-10.11,0-1.45-.19-6.28-1.08-6.95-2.55h24Z"/>
</svg>